<?xml version="1.0" encoding="utf-8"?>
<!-- Generator: Adobe Illustrator 16.0.0, SVG Export Plug-In . SVG Version: 6.00 Build 0)  -->
<!DOCTYPE svg PUBLIC "-//W3C//DTD SVG 1.1//EN" "http://www.w3.org/Graphics/SVG/1.1/DTD/svg11.dtd">
<svg version="1.1" id="Capa_1" xmlns="http://www.w3.org/2000/svg" xmlns:xlink="http://www.w3.org/1999/xlink" x="0px" y="0px"
	 width="500px" height="500px" viewBox="0 0 500 500" enable-background="new 0 0 500 500" xml:space="preserve">
<g id="W0ncHb_1_">
	<g>
		<path fill="#FFFFFF" stroke="#FF994F" stroke-width="3" stroke-miterlimit="10" d="M323.663,379.404
			c-3.545-8.037-6.61-15.437-10.13-22.61c-0.771-1.567-3.435-3.499-4.744-3.194c-1.83,0.426-4.068,2.527-4.643,4.375
			c-4.74,15.262-7.942,31.113-13.896,45.863c-11.128,27.574-28.53,37.529-57.663,31.26c-16.856-3.627-26.964-12.346-42.906-19.363
			c-8.488-3.738-11.747-17.884-7.842-25.998c3.895-8.094,12.526-11.525,21.519-8.629c11.877,3.828,23.634,8.133,35.694,11.262
			c12.62,3.273,11.583,5.853,13.558-6.926c2.679-17.299,7.287-35.098,5.537-52.113c-3.479-33.882-0.491-68.697-12.591-101.567
			c-1.879-5.105-4.228-8.151-9.593-10.074c-32.027-11.482-63.892-23.413-95.811-35.194c-1.174-0.433-2.363-0.827-3.518-1.305
			c-8.376-3.465-12.065-10.003-10.001-17.69c1.949-7.261,9.322-11.432,17.941-9.558c10.266,2.233,20.415,4.993,30.634,7.446
			c23.358,5.606,46.752,11.065,70.086,16.774c18.799,4.599,34.257-0.108,45.535-16.15c18.005-25.609,35.791-51.372,53.667-77.072
			c1.429-2.054,2.677-4.259,4.287-6.157c5.054-5.956,12.764-7.278,18.883-3.397c5.813,3.686,7.835,10.79,4.974,17.929
			c-0.834,2.082-1.988,4.039-3.05,6.026c-14.842,27.83-29.6,55.705-44.644,83.426c-2.161,3.981-2.125,6.968-0.256,11.032
			c16.335,35.514,24.298,72.947,25.116,111.979c0.058,2.668,0.997,5.341,1.692,7.968c6.005,22.688,12.64,45.233,17.776,68.114
			c1.924,8.572,1.15,17.998,0.254,26.896c-1.441,14.288-12.31,21.703-26.16,18.07c-16.02-4.202-25.259-15.785-29.842-30.974
			C310.867,391.025,315.574,384.419,323.663,379.404z"/>
		<path fill="#FFFFFF" stroke="#FF994F" stroke-width="3" stroke-miterlimit="10" d="M249.785,174.363
			c-26.312-0.022-46.972-21.147-47.161-48.221c-0.174-24.967,22.084-46.946,47.282-46.689c27.023,0.276,47.742,21.507,47.507,48.684
			C297.193,153.517,275.693,174.385,249.785,174.363z"/>
	</g>
</g>
</svg>
