<?xml version="1.0" encoding="utf-8"?>
<!-- Generator: Adobe Illustrator 16.0.0, SVG Export Plug-In . SVG Version: 6.00 Build 0)  -->
<!DOCTYPE svg PUBLIC "-//W3C//DTD SVG 1.1//EN" "http://www.w3.org/Graphics/SVG/1.1/DTD/svg11.dtd">
<svg version="1.1" id="Capa_1" xmlns="http://www.w3.org/2000/svg" xmlns:xlink="http://www.w3.org/1999/xlink" x="0px" y="0px"
	 width="410px" height="410px" viewBox="0 0 410 410" enable-background="new 0 0 410 410" xml:space="preserve">
<g>
	<g>
		<path fill="#FFFFFF" stroke="#FF994F" stroke-width="3" stroke-miterlimit="10" d="M113.536,297.412
			c-8.289,3.73-15.473,4.975-25.282,4.975c-22.933,0-43.103-16.441-43.103-43.518c0-28.184,20.446-52.637,51.669-52.637
			c24.315,0,41.722,16.716,41.722,39.926c0,20.171-11.328,32.88-26.249,32.88c-6.493,0-11.19-3.315-11.881-10.636h-0.277
			c-4.283,7.045-10.499,10.636-17.822,10.636c-8.98,0-15.473-6.63-15.473-17.959c0-16.854,12.434-32.188,32.328-32.188
			c6.079,0,12.986,1.518,16.44,3.453l-4.144,25.559c-1.382,8.151-0.415,11.884,3.453,12.021c5.941,0.142,13.401-7.46,13.401-23.347
			c0-17.959-11.604-31.913-33.018-31.913c-21.138,0-39.65,16.578-39.65,42.964c0,23.074,14.782,36.197,35.367,36.197
			c7.045,0,14.507-1.521,20.032-4.424L113.536,297.412z M101.242,240.355c-1.106-0.276-2.488-0.553-4.283-0.553
			c-9.118,0-16.302,8.979-16.302,19.617c0,5.251,2.349,8.566,6.907,8.566c5.112,0,10.499-6.493,11.743-14.506L101.242,240.355z"/>
	</g>
	<g>
		<path fill="#FFFFFF" stroke="#FF994F" stroke-width="3" stroke-miterlimit="10" d="M143.765,230.225h13.58v5.311
			c3.133-3.656,7.921-6.965,15.32-6.965c17.148,0,23.59,15.061,23.59,26.289c0,13.93-9.749,25.33-23.503,25.33
			c-8.704,0-12.796-4.178-14.537-6.006v4.354v16.104h-14.45V230.225z M181.805,254.337c0-5.659-4.178-12.274-12.099-12.274
			c-3.482,0-6.529,1.394-8.705,3.655c-2.088,2.177-3.395,5.31-3.395,8.792c0,3.396,1.307,6.441,3.483,8.618
			c2.176,2.177,5.223,3.569,8.618,3.569c7.572,0,12.099-6.18,12.099-12.273L181.805,254.337L181.805,254.337z"/>
		<path fill="#FFFFFF" stroke="#FF994F" stroke-width="3" stroke-miterlimit="10" d="M204.352,230.225h13.58v5.397
			c1.394-2.611,3.918-7.051,12.273-7.051v14.536h-0.521c-7.399,0-10.881,2.699-10.881,9.488v25.94h-14.45L204.352,230.225
			L204.352,230.225z"/>
		<path fill="#FFFFFF" stroke="#FF994F" stroke-width="3" stroke-miterlimit="10" d="M246.57,259.385
			c0.609,5.137,5.484,8.531,11.143,8.531c4.614,0,7.051-2.001,8.791-4.525h14.799c-2.352,5.396-5.746,9.574-9.837,12.36
			c-4.004,2.872-8.792,4.353-13.753,4.353c-13.84,0-25.592-11.229-25.592-25.593c0-13.493,10.62-25.94,25.33-25.94
			c7.398,0,13.753,2.873,18.279,7.66c6.094,6.529,7.922,14.276,6.791,23.154H246.57z M268.333,248.418
			c-0.349-2.264-3.308-7.66-10.795-7.66c-7.486,0-10.445,5.396-10.794,7.66H268.333z"/>
		<path fill="#FFFFFF" stroke="#FF994F" stroke-width="3" stroke-miterlimit="10" d="M290.967,230.225h13.493v5.137
			c1.654-2.351,4.701-6.79,13.318-6.79c16.275,0,17.932,13.229,17.932,19.76v30.205h-14.45V252.16c0-5.309-1.132-10.01-7.57-10.01
			c-7.14,0-8.271,5.136-8.271,10.098v26.288h-14.45L290.967,230.225L290.967,230.225z"/>
		<path fill="#FFFFFF" stroke="#FF994F" stroke-width="3" stroke-miterlimit="10" d="M396.296,278.536h-13.753v-5.224
			c-1.393,2.002-4.875,6.791-14.625,6.791c-14.624,0-24.199-11.317-24.199-25.854c0-16.365,11.664-25.679,23.938-25.679
			c8.528,0,12.621,4.178,14.188,5.746v-5.224v-14.972h14.45L396.296,278.536L396.296,278.536z M358.169,254.25
			c0,7.4,5.309,12.361,12.099,12.361c3.482,0,6.702-1.396,8.969-3.655c2.263-2.265,3.566-5.397,3.395-8.966
			c0-3.482-1.393-6.441-3.57-8.531c-2.176-2.176-5.223-3.395-8.615-3.395c-8.356,0-12.273,6.527-12.273,12.099L358.169,254.25
			L358.169,254.25z"/>
		<path fill="#FFFFFF" stroke="#FF994F" stroke-width="3" stroke-miterlimit="10" d="M418.582,259.385
			c0.609,5.137,5.484,8.531,11.142,8.531c4.614,0,7.053-2.001,8.791-4.525h14.801c-2.354,5.396-5.746,9.574-9.839,12.36
			c-4.004,2.872-8.792,4.353-13.753,4.353c-13.84,0-25.592-11.229-25.592-25.593c0-13.493,10.62-25.94,25.33-25.94
			c7.399,0,13.753,2.873,18.28,7.66c6.093,6.529,7.921,14.276,6.79,23.154H418.582z M440.344,248.418
			c-0.348-2.264-3.308-7.66-10.795-7.66c-7.486,0-10.445,5.396-10.794,7.66H440.344z"/>
	</g>
</g>
</svg>
