<?xml version="1.0" encoding="utf-8"?>
<!-- Generator: Adobe Illustrator 16.0.0, SVG Export Plug-In . SVG Version: 6.00 Build 0)  -->
<!DOCTYPE svg PUBLIC "-//W3C//DTD SVG 1.1//EN" "http://www.w3.org/Graphics/SVG/1.1/DTD/svg11.dtd">
<svg version="1.1" id="Capa_1" xmlns="http://www.w3.org/2000/svg" xmlns:xlink="http://www.w3.org/1999/xlink" x="0px" y="0px"
	 width="500px" height="500px" viewBox="0 0 500 500" enable-background="new 0 0 500 500" xml:space="preserve">
<path fill="#FFFFFF" stroke="#FF994F" stroke-width="3" stroke-miterlimit="10" d="M346.056,101.642
	c-33.891,3.366-67.771,6.845-101.656,10.289c-6.387,0.649-12.759,1.724-19.156,1.891c-4.804,0.125-6.226,1.637-6.202,6.544
	c0.205,41.395,0.117,18.791,0.117,60.186v-7.661c-6.428-4.058-11.927-7.529-17.894-11.296c-5.656,7.399-11.202,14.654-16.748,21.909
	c-0.363-0.106-0.727-0.212-1.09-0.318c0-47.837,0-16.675,0-64.451c-4.147-0.821-8.173,0.611-12.009,0.341
	c-0.438-0.005-0.847-0.055-1.243-0.121c-0.051,0.001-0.108-0.014-0.161-0.018c-0.045,0.005-0.088,0.013-0.136,0.013
	c-0.263,0-0.494-0.047-0.703-0.122c-4.966-0.64-9.675-3.006-13.731-6.017c-1.771-0.742-3.489-1.638-5.034-2.634
	c-2.278-1.195-4.512-2.476-6.682-3.566c-0.27-0.136-0.473-0.315-0.629-0.517c-3.408-1.321-6.707-3.239-8.175-6.076
	c-0.378-0.731-0.305-1.419,0.011-1.95c0.215-0.753,0.825-1.376,1.842-1.376c0.003,0,0.006,0.001,0.009,0.001
	c75.432-8.207,150.864-16.415,227.137-24.714c-2.944-4.261-5.438-7.871-7.932-11.482h-5.354
	c-11.609,1.421-23.209,2.985-34.839,4.238c-38.932,4.192-77.875,8.278-116.816,12.393c-28.673,3.03-57.349,6.043-86.023,9.064
	v322.257l43.896,31.048h5.353c8.274-1.037,16.532-2.233,24.825-3.085c45.036-4.625,90.083-9.149,135.123-13.741
	c21.631-2.205,43.255-4.483,64.883-6.728V97.972C373.378,99.187,359.704,100.286,346.056,101.642z M264.035,326.73H238.54v-39.929
	h-32.643v39.929h-25.493v-99.815h25.494v37.498h32.643v-37.498h25.494V326.73z M303.563,326.73H281.17v-74.862h22.393V326.73
	L303.563,326.73z M303.563,243.909H281.17v-16.995h22.393V243.909L303.563,243.909z M345.647,326.73h-23.065v-22.934h23.065V326.73z
	 M345.647,293.816h-23.065v-66.902h23.065V293.816z"/>
</svg>
