<?xml version="1.0" encoding="utf-8"?>
<!-- Generator: Adobe Illustrator 16.0.0, SVG Export Plug-In . SVG Version: 6.00 Build 0)  -->
<!DOCTYPE svg PUBLIC "-//W3C//DTD SVG 1.1//EN" "http://www.w3.org/Graphics/SVG/1.1/DTD/svg11.dtd">
<svg version="1.1" id="Capa_1" xmlns="http://www.w3.org/2000/svg" xmlns:xlink="http://www.w3.org/1999/xlink" x="0px" y="0px"
	 width="500px" height="500px" viewBox="0 0 500 500" enable-background="new 0 0 500 500" xml:space="preserve">
<path fill="#FFFFFF" stroke="#FF994F" stroke-width="3" stroke-miterlimit="10" d="M358.76,433.888
	c11.792-6.984,10.359-17.255,10.354-27.104c-0.02-34.65,0.003-69.302-0.015-103.951c-0.006-14.304-6.268-20.549-20.708-20.556
	c-65.595-0.021-131.188-0.021-196.785,0c-14.442,0.005-20.723,6.25-20.73,20.545c-0.019,36.689,0.104,73.379-0.092,110.065
	c-0.044,8.263,1.485,15.393,8.727,21c-10.633,0-21.266,0-31.899,0c0,2.227,0,4.449,0,6.675c4.613,10.911,5.443,11.457,17.821,11.455
	c83.044,0.004,166.087,0.004,249.133,0c12.377,0,13.207-0.545,17.817-11.457c0-2.224,0-4.446,0-6.674
	C381.83,433.888,371.274,433.888,358.76,433.888z M346,416H154V298h192V416z"/>
<path fill="#FFFFFF" stroke="#FF994F" stroke-width="3" stroke-miterlimit="10" d="M287.091,404.786
	c-0.483-8.056-0.539-16.306-2.43-24.072c-3.165-12.999-10.695-25.253-28.735-27.918c7.57-2.524,13.244-9.649,13.547-18.049
	c0.383-10.661-8.515-19.89-19.306-20.024c-10.71-0.135-19.419,8.274-19.646,18.967c-0.188,8.896,5.329,16.432,13.184,19.074
	c-10.184,1.604-18.876,7.42-24.037,17.09c-4.957,9.287-6.988,19.338-6.76,29.831c0.059,2.729,0.151,5.526,0.813,8.146
	c0.954,3.777,4.805,5.968,8.594,5.403c3.785-0.565,5.491-2.825,5.508-7.366c0.015-3.989-0.357-8.019,0.077-11.956
	c0.522-4.736,1.716-9.396,2.619-14.094c0.336,0.082,0.673-0.086,1.009-0.004c0,12.146,0.02,25.187,0.025,36.187h36.382
	c-0.047-3-0.09-7.03-0.119-10.67c-0.07-9.171-0.017-18.22-0.017-27.392c0.287-0.066,0.575-0.071,0.862-0.141
	c0.71,2.186,1.837,4.358,2.055,6.59c0.723,7.355,1.186,14.758,1.607,22.14c0.296,5.164,4.091,7.919,9.043,6.354
	C285.332,411.631,287.323,408.65,287.091,404.786z"/>
<path fill="#FFFFFF" stroke="#FF994F" stroke-width="3" stroke-miterlimit="10" d="M113.571,253.258c0-9.963,0-19.536,0-29.767
	c-10.486,3.056-20.349,6.147-30.343,8.729c-3.646,0.942-7.792,1.557-11.388,0.798c-14.332-3.024-19.83-18.736-10.99-31.034
	c15.757-21.921,31.678-43.724,47.537-65.572c2.175-2.997,4.021-6.348,6.654-8.875c5.13-4.923,11.524-6.997,18.693-6.971
	c21.731,0.078,43.463,0.053,65.195,0.018c10.942-0.018,18.245,5.282,24.442,14.188c15.77,22.666,32.35,44.766,48.477,67.186
	c8.848,12.301,3.379,27.983-10.943,31.062c-3.461,0.744-7.443,0.237-10.947-0.646c-8.709-2.193-17.278-4.94-25.908-7.448
	c-1.445-0.42-2.912-0.76-4.885-1.271c0,10.042,0,19.616,0,29.602C183.934,253.258,149.134,253.258,113.571,253.258z
	 M204.371,220.064c-14.067-7.88-17.837-15.087-13.992-25.72c3.928-10.863,10.819-13.406,28.199-10.26c0-13.073,0-26.096,0-39.497
	c-1.817,0.543-3.146,0.911-4.457,1.337c-14.595,4.74-29.152,9.598-43.812,14.126c-2.448,0.756-5.535,0.734-7.988-0.025
	c-14.806-4.582-29.511-9.489-44.257-14.264c-1.245-0.403-2.547-0.629-3.967-0.973c0,13.412,0,26.337,0,39.332
	c14.973-2.916,23.174-0.855,26.851,6.872c2.661,5.591,4.731,11.795,0.93,17.3c-3.243,4.698-8.004,8.348-11.94,12.307
	c10.849,3.603,22.451,7.501,34.096,11.262c1.35,0.436,3.073,0.5,4.409,0.07C180.234,228.131,191.976,224.181,204.371,220.064z"/>
<path fill="#FFFFFF" stroke="#FF994F" stroke-width="3" stroke-miterlimit="10" d="M211.341,79.212
	c-0.732,25.049-20.575,44.043-45.393,43.452c-24.382-0.581-43.892-20.917-43.275-45.108c0.639-25.094,20.956-44.174,46.141-43.333
	C193.028,35.03,212.044,55.147,211.341,79.212z"/>
<g>
	<path fill="#FFFFFF" stroke="#FF994F" stroke-width="3" stroke-miterlimit="10" d="M395.875,140.862h47.189v43.896h-47.189v47.463
		h-43.896v-47.463H304.79v-43.896h47.188V93.4h43.896L395.875,140.862L395.875,140.862z"/>
</g>
</svg>
