<?xml version="1.0" encoding="utf-8"?>
<!-- Generator: Adobe Illustrator 16.0.0, SVG Export Plug-In . SVG Version: 6.00 Build 0)  -->
<!DOCTYPE svg PUBLIC "-//W3C//DTD SVG 1.1//EN" "http://www.w3.org/Graphics/SVG/1.1/DTD/svg11.dtd">
<svg version="1.1" id="Capa_1" xmlns="http://www.w3.org/2000/svg" xmlns:xlink="http://www.w3.org/1999/xlink" x="0px" y="0px"
	 width="403px" height="403px" viewBox="0 0 403 403" enable-background="new 0 0 403 403" xml:space="preserve">
<path fill="#FFFFFF" stroke="#FF994F" stroke-width="3" stroke-miterlimit="10" d="M173.787,192.887
	c-13.313-12.11-30.992-19.501-50.365-19.501c-41.312,0-74.922,33.61-74.922,74.923c0,41.312,33.61,74.922,74.922,74.922
	c19.373,0,37.051-7.395,50.365-19.502c-11.368-15.563-18.1-34.719-18.1-55.42C155.687,227.604,162.419,208.449,173.787,192.887z
	 M127.043,254.451c-7.123,8.752-14.315,17.449-21.571,26.091c-3.893,4.636-9.524,5.33-13.707,1.916
	c-4.18-3.412-4.574-9.036-0.877-13.835c1.846-2.396,3.842-4.678,6.083-7.389l-13.561-0.326c-0.004-0.156-0.011-0.311-0.014-0.467
	c0.358-5.071,1.151-10.168,0.492-15.232c-0.137-1.057-0.381-2.077-0.714-3.055l13.043-0.586c0.343,0.035,0.336,0.041,0.292,0.039
	c0.043,0.002,0.115,0.006,0.264,0.014c0.147-0.303,0.294-0.604,0.441-0.906c-3.884-3.21-7.999-6.183-11.581-9.699
	c-3.196-3.139-3.202-7.834-0.754-11.33c2.645-3.777,6.96-5.201,11.149-3.529c1.171,0.468,2.268,1.232,3.252,2.041
	c8.811,7.236,17.615,14.481,26.37,21.787C130.725,244.221,131.243,249.289,127.043,254.451z"/>
<path fill="#FFFFFF" stroke="#FF994F" stroke-width="3" stroke-miterlimit="10" d="M300.23,192.888
	c-13.313-12.111-30.992-19.502-50.365-19.502s-37.051,7.391-50.365,19.501c-2.407,2.19-4.659,4.545-6.765,7.027
	c-2.213,2.609-4.247,5.37-6.091,8.266c-7.396,11.61-11.701,25.372-11.701,40.129c0,14.756,4.305,28.518,11.701,40.127
	c1.845,2.896,3.878,5.655,6.091,8.268c2.106,2.482,4.358,4.837,6.765,7.027c13.314,12.106,30.992,19.5,50.365,19.5
	s37.051-7.394,50.365-19.5c-11.369-15.563-18.104-34.717-18.104-55.422C282.129,227.604,288.859,208.45,300.23,192.888z
	 M252.376,254.451c-7.123,8.752-14.315,17.449-21.571,26.091c-3.893,4.636-9.523,5.33-13.707,1.916
	c-4.18-3.412-4.574-9.036-0.877-13.835c1.846-2.396,3.842-4.678,6.084-7.389l-13.562-0.326c-0.004-0.156-0.011-0.311-0.015-0.467
	c0.358-5.071,1.151-10.168,0.492-15.232c-0.137-1.057-0.381-2.077-0.714-3.055l13.043-0.586c0.343,0.035,0.337,0.041,0.292,0.039
	c0.043,0.002,0.115,0.006,0.264,0.014c0.147-0.303,0.295-0.604,0.441-0.906c-3.884-3.21-7.999-6.183-11.581-9.699
	c-3.196-3.139-3.202-7.834-0.754-11.33c2.646-3.777,6.96-5.201,11.149-3.529c1.171,0.468,2.268,1.232,3.252,2.041
	c8.812,7.236,17.615,14.481,26.369,21.787C256.059,244.221,256.576,249.289,252.376,254.451z"/>
<path fill="#FFFFFF" stroke="#FF994F" stroke-width="3" stroke-miterlimit="10" d="M376.308,173.386
	c-19.372,0-37.051,7.391-50.361,19.501c-2.407,2.19-4.659,4.545-6.769,7.027c-2.213,2.609-4.247,5.37-6.091,8.266
	c-7.396,11.61-11.7,25.372-11.7,40.129c0,14.756,4.305,28.518,11.7,40.127c1.845,2.896,3.878,5.655,6.091,8.268
	c2.106,2.482,4.358,4.837,6.769,7.027c13.313,12.106,30.989,19.5,50.361,19.5c41.313,0,74.926-33.609,74.926-74.922
	C451.233,206.997,417.62,173.386,376.308,173.386z M399.71,254.451c-7.123,8.752-14.315,17.449-21.571,26.091
	c-3.893,4.636-9.521,5.33-13.707,1.916c-4.18-3.412-4.57-9.036-0.877-13.835c1.85-2.396,3.846-4.678,6.083-7.389l-13.561-0.326
	c-0.004-0.156-0.011-0.311-0.018-0.467c0.358-5.071,1.151-10.168,0.492-15.232c-0.137-1.057-0.381-2.077-0.714-3.055l13.043-0.586
	c0.343,0.035,0.337,0.041,0.294,0.039c0.043,0.002,0.114,0.006,0.266,0.014c0.146-0.303,0.294-0.604,0.438-0.906
	c-3.884-3.21-7.999-6.183-11.581-9.699c-3.195-3.139-3.202-7.834-0.754-11.33c2.646-3.777,6.96-5.201,11.149-3.529
	c1.171,0.468,2.268,1.232,3.252,2.041c8.812,7.236,17.614,14.481,26.371,21.787C403.392,244.221,403.91,249.289,399.71,254.451z"/>
</svg>
