<?xml version="1.0" encoding="utf-8"?>
<!-- Generator: Adobe Illustrator 16.0.0, SVG Export Plug-In . SVG Version: 6.00 Build 0)  -->
<!DOCTYPE svg PUBLIC "-//W3C//DTD SVG 1.1//EN" "http://www.w3.org/Graphics/SVG/1.1/DTD/svg11.dtd">
<svg version="1.1" id="Capa_1" xmlns="http://www.w3.org/2000/svg" xmlns:xlink="http://www.w3.org/1999/xlink" x="0px" y="0px"
	 width="500px" height="500px" viewBox="0 0 500 500" enable-background="new 0 0 500 500" xml:space="preserve">
<path fill="#FFFFFF" stroke="#FF994F" stroke-width="3" stroke-miterlimit="10" d="M270.645,89.411c0,0-15.971,18.717,0.551,25.888
	c17.072-8.816,30.291-14.869,30.291-14.869S273.395,107.587,270.645,89.411z"/>
<path fill="#FFFFFF" stroke="#FF994F" stroke-width="3" stroke-miterlimit="10" d="M329.262,429.969
	c1.413-13.11,4.152-25.646,11.453-36.212c4.479-10.7,13.077-19.731,19.214-29.729c0.771-1.254,1.441-2.563,2.086-3.885
	c0.068-0.19,0.158-0.438,0.28-0.77c0.493-1.406,0.771-2.874,1.072-4.328c0.846-4.068,1.042-8.322,1.145-12.529
	c-0.501-6.021-1.214-11.813-2.93-17.291c-4.558-14.543-10.654-28.867-18.098-42.16c-6.253-11.168-7.539-22.035-6.581-34.333
	c2.488-32.006,5.339-64.06,5.806-96.127c0.081-5.592-0.168-11.034-0.762-16.306c-2.368-11.355-6.131-22.441-11.693-33.075
	c-5.152-9.85-11.498-17.968-19.001-24.43c-4.947-3.804-10.526-7.388-16.808-10.352c-9.825-4.634-21-6.439-31.664-9.439h-23.719
	c-11.211,4-23.115,5.042-33.507,9.946c-9.989,4.714-18.234,10.633-24.914,17.409c-4.079,4.779-7.714,10.24-10.894,16.319
	c-5.351,10.23-9.023,20.903-11.404,31.806c-0.799,5.985-1.144,12.207-1.051,18.617c0.466,32.067,3.314,64.127,5.806,96.133
	c0.957,12.3-0.328,23.168-6.581,34.336c-7.444,13.293-13.54,27.619-18.098,42.162c-1.717,5.478-2.429,11.271-2.93,17.289
	c0.102,4.209,0.298,8.461,1.145,12.529c0.302,1.454,0.579,2.922,1.072,4.326c0.122,0.329,0.211,0.574,0.28,0.766
	c0.645,1.32,1.316,2.627,2.086,3.879c6.137,10,14.738,19.021,19.214,29.719c7.301,10.564,10.04,23.124,11.453,36.234
	c0.125,1.165,0.74,2.525,1.243,3.525h155.837C328.342,433,329.119,431.295,329.262,429.969z M177.57,139.802
	c33.52-6.403,70.398-2.987,98.266-29.975c15.771,18.151,33.963,34.745,56.739,45.584c-0.646,26.46-21.646,54.738-48.709,64.396
	c-6.472,2.309-9.218,5.175-8.097,11.813c0.273,1.628,0.058,3.343,0.039,5.018c-0.095,7.953-2.137,16.818,10.18,18.494
	c-10.617,19.148-20.594,37.144-31.452,56.728c-10.364-19.647-20.141-38.186-30.286-57.422c9.774-1.744,6.877-9.164,7.656-15.338
	c1.433-11.351-1.644-17.684-13.28-23.286C189.11,201.602,172.59,168.881,177.57,139.802z M330.258,316.439
	c-8.463,0.633-14.404,1.076-21.824,1.631c1.069-6.334,1.918-11.366,3.025-17.928C317.851,305.684,323.127,310.258,330.258,316.439z
	 M179.94,424c-5.495-29-10.994-59-16.615-89h178.991c-5.487,30-10.931,59-16.48,89H179.94z"/>
<path fill="#FFFFFF" stroke="#FF994F" stroke-width="3" stroke-miterlimit="10" d="M260.004,380.24
	c-0.968,6.042-4.268,9.695-10.615,9.501c-6.392-0.195-9.6-4.169-9.888-10.206c-0.273-5.715,5.28-10.527,10.998-10.1
	C255.916,369.842,260.288,374.811,260.004,380.24z"/>
</svg>
