<?xml version="1.0" encoding="utf-8"?>
<!-- Generator: Adobe Illustrator 16.0.0, SVG Export Plug-In . SVG Version: 6.00 Build 0)  -->
<!DOCTYPE svg PUBLIC "-//W3C//DTD SVG 1.1//EN" "http://www.w3.org/Graphics/SVG/1.1/DTD/svg11.dtd">
<svg version="1.1" id="Capa_1" xmlns="http://www.w3.org/2000/svg" xmlns:xlink="http://www.w3.org/1999/xlink" x="0px" y="0px"
	 width="500px" height="500px" viewBox="0 0 500 500" enable-background="new 0 0 500 500" xml:space="preserve">
<path fill="#FFFFFF" d="M308.836,79.985c0,0-28.754-19.168-61.973-20.441c-33.219-1.28-55.699,3.265-55.699,16.061
	c0,6.489,7.302,12.976,20.56,6.937c7.671-0.638,40.887-1.279,60.699,7.032C292.223,97.872,308.836,79.985,308.836,79.985z"/>
<path fill="#FFFFFF" d="M242.868,77.18c0,0-9.53,11.169,0.329,15.448c10.187-5.261,18.075-8.872,18.075-8.872
	S244.508,88.026,242.868,77.18z"/>
<path opacity="0.5" fill="#F18857" enable-background="new    " d="M393.365,142.839c-5.757-28.175-20.557-59.346-52.155-76.605
	c1.88,0.611,3.734,1.248,5.525,1.94c-3.073-1.504-6.309-2.876-9.689-4.115c-12.73-6.165-27.99-10.17-46.249-11.013
	c-23.408-1.078-50.927-0.117-77.023,9.379c-40.235,7.893-85.791,31.949-108.89,76.07c-35.007,66.883,0.021,126.456,16.588,143.712
	c13.421,13.98,24.905,8.945,27.29,0.751c4.66,3.792,5.688,5.356,10.947,8.562c20.645,16.877,43.647,23.031,75.277,22.896
	c4.869-0.018,6.283-0.102,11.431-0.59c4.534,4.933,19.761,12.503,42.207,11.342c31.401-1.623,91.739-21.271,112.007-69.175
	C419.891,210.473,405.875,165.781,393.365,142.839z M276.795,288.82c-7.684-0.287-15.525-1.1-23.512-2.002
	c-38.03-4.31-64.573-23.684-64.573-23.684c-40.185-30.854-48.451-76.584-17.029-129.942c5.304-9.003,12.358-16.999,20.566-23.961
	c1.535-0.513,3.09-0.997,4.65-1.457c6.666-1.671,12.312-3.081,12.312-3.081l0,0c47.355-9.653,98.792,3.72,111.509,40.141
	c15.003,42.95-2.727,75.681-8.864,83.178c-6.136,7.498-12.953,18.409-5.45,23.181c7.496,4.774,20.231-4.112,27.289-15.208
	c5.92-9.303,11.528-16.726,15.623-45.359c1.577-11.051,1.207-28.714-5.02-46.673c8.681,15.158,13.65,32.504,13.026,50.903
	C355.797,240.113,316.374,274.398,276.795,288.82z"/>
<path fill="#FFFFFF" d="M261.754,306.591c0,0,97.104-17.321,111.228-68.421c14.126-51.09,8.826-72.741-52.965-120.37
	c-61.796-47.63-144.78-25.112-179.206,27.713c-34.431,52.825-9.718,103.99,4.855,121.708c9.269,10.786-4.853,29.842-19.862,12.524
	c-15.005-17.32-49.435-73.612-15.886-137.696c33.542-64.083,116.524-84.005,156.245-72.747
	c39.726,11.26,105.936,52.831,118.292,73.61c12.359,20.785,28.247,65.819,8.826,111.719c-19.421,45.896-74.98,63.178-105.066,64.741
	C246.304,321.538,235.265,297.063,261.754,306.591z"/>
<path fill="#FFFFFF" d="M227.867,295.107c0,0-69.249-3.271-89.499-58.146c-20.25-54.874-2.619-99.948,47.693-120.203
	c50.296-20.25,116.283-9.797,130.654,31.358c14.371,41.158-2.614,72.514-8.495,79.701c-5.876,7.187-12.411,17.636-5.219,22.212
	c7.182,4.573,19.382-3.942,26.142-14.567c5.676-8.917,11.05-16.029,14.975-43.466c3.921-27.444-4.538-97.451-91.421-104.632
	c-86.892-7.19-132.618,51.604-141.113,85.576c-8.495,33.974,13.717,86.892,35.929,105.18c22.208,18.294,52.791,30.049,80.356,30.049
	C246.814,308.172,238.32,289.229,227.867,295.107z"/>
<path fill="#FFFFFF" d="M144.686,161.922c0,0-14.117,58.836,8.236,92.373c22.357,33.537,54.402,44.563,98.389,37.871
	c43.994-6.691,98.718-43.758,100.479-96.12c1.767-52.362-43.539-95.899-90.021-101.786c-22.943-2.353-40.005,0-40.005,0
	s-8.126,0.028-8.185-11.163c-0.053-11.196,5.241-12.372,29.365-11.784c24.121,0.588,81.194,7.652,107.085,51.777
	c25.883,44.13,30.591,91.788,4.114,131.206c-26.475,39.42-79.11,56.146-119.573,56.313c-40.463,0.17-66.185-10.39-91.48-41.823
	c-34.008-42.264-24.877-88.037-20.761-103.331c4.122-15.301,18.235-29.419,27.065-19.415
	C158.217,156.039,146.453,155.448,144.686,161.922z"/>
<path fill="#FFFFFF" d="M288.041,60.172c-50.135-2.312-120.013,5.03-150.266,92.144c-27.381,78.845,17.72,115.53,35.592,127.903
	c0,0,48.131,38.502,127.193,24.059c79.062-14.436,84.906-90.938,87.998-116.187C392.943,152.316,380.186,64.425,288.041,60.172z
	 M350.055,245.156c-28.187,45.371-61.514,43.128-97.955,39.003c-36.434-4.125-61.874-22.689-61.874-22.689
	c-38.496-29.56-46.419-73.38-16.315-124.502c30.119-51.127,118.198-69.417,158.074-37.103
	C371.863,132.178,378.248,199.78,350.055,245.156z"/>
<path opacity="0.55" fill="#F18857" enable-background="new    " d="M348.526,106.954c-5.387-4.363-11.663-7.772-18.54-10.33
	c3.943,2.002,7.641,4.317,10.976,7.021c39.877,32.314,46.261,99.916,18.076,145.289c-28.192,45.382-61.522,43.132-97.959,39.005
	c-14.419-1.635-27.072-5.523-37.15-9.636c10.921,5.171,26.431,10.871,44.711,12.943c36.438,4.125,69.766,6.37,97.956-39.005
	S388.401,139.265,348.526,106.954z M154.311,159.404C184.57,72.29,254.445,64.946,304.585,67.263
	c14.155,0.653,26.424,3.298,37.063,7.408c-12.264-6.002-26.982-9.904-44.631-10.717c-50.135-2.314-120.013,5.029-150.266,92.142
	c-27.384,78.844,17.716,115.528,35.592,127.906c0,0,9.689,7.723,27.462,14.956c-12.939-6.097-19.896-11.653-19.896-11.653
	C172.039,274.934,126.929,238.248,154.311,159.404z"/>
<path fill="#FFFFFF" d="M320.724,93.057c-1.315-0.985,36.203,43.278,38.803,77.062c2.596,33.784,1.04,66.527-37.94,104.984
	c18.191-11.953,49.789-46.72,44.697-103.947C361.056,112.435,326.963,97.732,320.724,93.057z"/>
<path opacity="0.55" fill="#F18857" enable-background="new    " d="M209.872,109.662c0,0,12.094-10.948,22.756-12.965
	c5.468,0.578,81.132,9.923,109.074,60.043c-0.867-6.91-6.237-15.396-6.237-15.396s-24.771-41.188-73.697-47.084
	c-18.48-3.039-33.43-1.162-33.43-1.162s-24.808,11.955-34.603,20.595C201.806,111.678,209.872,109.662,209.872,109.662z"/>
<path fill="#F18857" d="M389.044,185.697c0,0,9.657,42.142-14.438,76.892c-24.928,35.947-59.313,38.463-59.313,38.463
	s42.845-13.214,59.526-54.451C382.238,231.311,386.651,208.237,389.044,185.697z"/>
<path opacity="0.25" fill="#F18857" enable-background="new    " d="M170.628,96.282c0,0-17.153,7.8-28.387,27.141
	c-3.746,4.056-3.746,4.056-3.746,4.056s-4.058,9.049-4.68,18.409c-3.425,4.051-3.425,4.051-3.425,4.051
	s-25.275,77.054,25.577,121.042c17.468,15.287,35.874,27.144,58.957,29.642c-10.292-3.437-63.637-20.597-81.109-69.883
	c-14.656-42.116,10.294-95.451,13.724-101.694C150.975,122.806,163.774,103.455,170.628,96.282z"/>
<path fill="#F18857" d="M145.473,282.646c0,0-30.9-21.934-37.881-64.805c-6.975-42.864,4.985-64.467,23.596-86.732
	c4.32-4.65,6.314-4.316,12.631-8.638c-11.966,13.293-37.553,33.232-33.237,76.763c3.659,32.9,22.598,69.455,37.226,80.087
	C147.137,280.986,145.473,282.646,145.473,282.646z"/>
<path fill="#F18857" d="M323.151,155.892c0,0,11.043,43.53-12.064,74.614c-4.334,8.298-8.933,14.297-7.595,14.744
	c3.23,1.072,15.195-17.426,21-34.403C330.305,193.871,328.07,168.848,323.151,155.892z"/>
<g>
	<path fill="#FFFFFF" stroke="#FF994F" stroke-width="3" stroke-miterlimit="10" d="M90.199,359.499h27.202
		c7.601,0,13.7,1.7,17.9,5.001c4.301,3.2,6.601,8.102,6.601,14.4c0,5.699-2.6,11.5-8.601,14.899
		c11.901,4.2,12.201,14.103,12.201,17.201c0,5.9-2.3,12.4-6.801,16.101c-6.8,5.7-11.7,6.4-24.201,6.4H90.199V359.499z
		 M109.101,387.602h6.7c1.3,0,3.301,0,5.001-0.701c1.699-0.801,3-2.301,3-5.198c0-2.802-1.301-4.201-2.9-4.9
		c-1.601-0.698-3.601-0.698-5.101-0.698h-6.7V387.602z M109.101,416.903h8.9c1.2,0,3.601,0,5.601-0.9c2.1-0.898,3.8-2.7,3.8-6.2
		c0-3.2-1.6-4.801-3.6-5.601c-1.9-0.8-4.301-0.8-5.801-0.8h-8.9V416.903z"/>
	<path fill="#FFFFFF" stroke="#FF994F" stroke-width="3" stroke-miterlimit="10" d="M180.898,359.499H222.8V376.1h-23v11.502h22.302
		v16.602H199.8v12.701h23.001v16.601h-41.902L180.898,359.499L180.898,359.499z"/>
	<path fill="#FFFFFF" stroke="#FF994F" stroke-width="3" stroke-miterlimit="10" d="M274.398,433.504h-20.5l29.302-74.005h16.301
		l28.401,74.005h-20.701l-3.5-10.7H277.8L274.398,433.504z M290.5,382.001l-8,25.802h16.301L290.5,382.001z"/>
	<path fill="#FFFFFF" stroke="#FF994F" stroke-width="3" stroke-miterlimit="10" d="M376.1,409.002c0,8.602,5.302,10.102,7.7,10.102
		c4.5,0,7.2-3.699,7.2-7.101c0-3.9-3.101-5.101-14.501-9.901c-5.2-2.1-18.101-7.3-18.101-21.201c0-14.898,13.5-22.801,25.899-22.801
		c10.2,0,24.604,5.2,24.901,23.002h-18.7c-0.4-2.5-1-7.201-6.801-7.201c-3.3,0-6.5,2.302-6.5,5.802c0,3.399,2,4.301,15.301,10.301
		c13.801,6.2,17.301,12.602,17.301,21.201c0,11.801-6.2,23.702-25.801,23.702c-19.401,0-27.202-11.401-26.702-25.902L376.1,409.002
		L376.1,409.002z"/>
</g>
</svg>
