<?xml version="1.0" encoding="utf-8"?>
<!-- Generator: Adobe Illustrator 16.0.0, SVG Export Plug-In . SVG Version: 6.00 Build 0)  -->
<!DOCTYPE svg PUBLIC "-//W3C//DTD SVG 1.1//EN" "http://www.w3.org/Graphics/SVG/1.1/DTD/svg11.dtd">
<svg version="1.1" id="Capa_1" xmlns="http://www.w3.org/2000/svg" xmlns:xlink="http://www.w3.org/1999/xlink" x="0px" y="0px"
	 width="500px" height="500px" viewBox="0 0 500 500" enable-background="new 0 0 500 500" xml:space="preserve">
<path fill="#FFFFFF" stroke="#FF994F" stroke-width="3" stroke-miterlimit="10" d="M398.005,333.973
	c16.046-9.509,14.096-23.484,14.089-36.886c-0.022-47.153,0.004-94.307-0.017-141.46c-0.009-19.463-8.532-27.965-28.184-27.971
	c-89.264-0.029-178.525-0.028-267.791-0.001c-19.653,0.006-28.2,8.505-28.21,27.96c-0.026,49.927,0.142,99.854-0.125,149.779
	c-0.06,11.239,2.022,20.941,11.876,28.578c-14.47,0-28.939,0-43.409,0c0,3.026,0,6.055,0,9.082
	c6.278,14.85,7.408,15.592,24.252,15.592c113.009,0.006,226.018,0.006,339.027,0c16.845,0,17.976-0.742,24.25-15.59
	c0-3.029,0-6.058,0-9.084C429.4,333.973,415.033,333.973,398.005,333.973z M380,309H120V149h260V309z"/>
<path fill="#FFFFFF" stroke="#FF994F" stroke-width="3" stroke-miterlimit="10" d="M300.475,294.369
	c-0.658-10.963-0.731-22.19-3.307-32.758c-4.309-17.69-14.555-34.365-39.104-37.992c10.301-3.435,18.021-13.13,18.433-24.561
	c0.522-14.508-11.586-27.066-26.27-27.25c-14.575-0.182-26.426,11.26-26.735,25.812c-0.256,12.103,7.252,22.356,17.941,25.957
	c-13.858,2.179-25.687,10.096-32.711,23.255c-6.746,12.639-9.51,26.316-9.199,40.598c0.081,3.709,0.206,7.521,1.106,11.084
	c1.298,5.139,6.539,8.121,11.696,7.354c5.15-0.771,7.472-3.847,7.495-10.024c0.02-5.428-0.486-10.906,0.104-16.27
	c0.71-6.445,2.335-12.789,3.563-19.18c0.458,0.111,0.916,0.069,1.374,0.183c0,16.524,0.028,33.427,0.034,49.427h49.509
	c-0.065-5-0.122-9.752-0.161-14.705c-0.097-12.479-0.021-24.885-0.021-37.363c0.391-0.095,0.78-0.146,1.174-0.238
	c0.967,2.973,2.5,5.908,2.797,8.945c0.979,10.01,1.611,20.067,2.188,30.112c0.403,7.027,5.566,10.771,12.307,8.644
	C298.081,303.689,300.791,299.627,300.475,294.369z"/>
</svg>
