<?xml version="1.0" encoding="utf-8"?>
<!-- Generator: Adobe Illustrator 16.0.0, SVG Export Plug-In . SVG Version: 6.00 Build 0)  -->
<!DOCTYPE svg PUBLIC "-//W3C//DTD SVG 1.1//EN" "http://www.w3.org/Graphics/SVG/1.1/DTD/svg11.dtd">
<svg version="1.1" id="Capa_1" xmlns="http://www.w3.org/2000/svg" xmlns:xlink="http://www.w3.org/1999/xlink" x="0px" y="0px"
	 width="500px" height="500px" viewBox="0 0 500 500" enable-background="new 0 0 500 500" xml:space="preserve">
<g>
	<path fill="#FFFFFF" stroke="#FF994F" stroke-width="3" stroke-miterlimit="10" d="M390.775,195.312
		c-4.229-1.784-8.78-7.225-9.719-11.696c-11.853-56.591-71.503-81.241-119.267-48.904c-2.19,1.483-4.488,2.807-7.286,4.547
		c-44.768-46.007-104.083-33.391-129.153,1.088c-12.829,17.644-24.479,30.528-47.201,36.434
		c-25.191,6.548-38.025,34.345-35.062,60.484c2.993,26.399,22.51,47.926,49.105,52.125c8.557,1.352,12.842,3.955,16.436,12.174
		c17.647,40.357,63.496,56.771,102.92,36.963c7.369-3.702,11.71-2.568,17.955,1.849c27.247,19.274,61.059,18.337,88.396-0.696
		c4.186-2.914,11.811-4.404,16.394-2.684c41.223,15.468,84.526-2.635,100.348-42.745
		C450.13,254.986,430.898,212.248,390.775,195.312z M243.215,298H217.72v-39.927h-32.643V298h-25.493v-99.816h25.494v37.498h32.643
		v-37.498h25.494V298L243.215,298z M282.742,298H260.35v-74.863h22.394L282.742,298L282.742,298z M282.742,215.179H260.35v-16.995
		h22.394L282.742,215.179L282.742,215.179z M324.827,298h-23.065v-22.932h23.065V298z M324.827,265.087h-23.065v-66.903h23.065
		V265.087z"/>
	<path fill="#FFFFFF" stroke="#FF994F" stroke-width="3" stroke-miterlimit="10" d="M224.238,356.482
		c-18.478,0.084-34.535,16.148-34.407,34.427c0.128,18.299,16.319,34.156,34.79,34.068c18.353-0.084,34.546-16.299,34.422-34.469
		C258.917,372.199,242.757,356.398,224.238,356.482z"/>
	<path fill="#FFFFFF" stroke="#FF994F" stroke-width="3" stroke-miterlimit="10" d="M170.231,411.677
		c-10.517-0.726-20.298,7.683-21.339,18.34c-1.144,11.728,6.773,21.397,18.275,22.323c11.647,0.938,21.429-7.207,22.322-18.583
		C190.349,422.794,181.321,412.442,170.231,411.677z"/>
</g>
</svg>
