<?xml version="1.0" encoding="utf-8"?>
<!-- Generator: Adobe Illustrator 16.0.0, SVG Export Plug-In . SVG Version: 6.00 Build 0)  -->
<!DOCTYPE svg PUBLIC "-//W3C//DTD SVG 1.1//EN" "http://www.w3.org/Graphics/SVG/1.1/DTD/svg11.dtd">
<svg version="1.1" id="Capa_1" xmlns="http://www.w3.org/2000/svg" xmlns:xlink="http://www.w3.org/1999/xlink" x="0px" y="0px"
	 width="500px" height="500px" viewBox="0 0 500 500" enable-background="new 0 0 500 500" xml:space="preserve">
<g>
	<g id="NavVlQ_1_">
		<g>
			<path fill="#FFFFFF" stroke="#779DFF" stroke-width="2" stroke-miterlimit="10" d="M149.561,334.285
				c-0.503,2.918-1.391,5.829-1.451,8.757c-0.736,35.826,0.664,33.799-0.565,69.608c-0.206,6-2.885,13.031-6.802,17.5
				c-4.708,5.369-12.283,5.556-19.198,2.362c-7.377-3.405-9.029-9.924-8.892-17.13c0.442-23.217,1.397-46.43,1.512-69.648
				c0.241-48.678-1.648-59.49-1.648-108.169c-0.712-0.166-1.424-0.332-2.136-0.498c-1.873,9.8-4.348,19.535-5.431,29.419
				c-0.899,8.213-0.122,16.604-0.157,24.914c-0.04,9.433-3.638,14.15-11.545,15.293c-8.245,1.192-17.275-3.678-17.956-12.137
				c-1.093-13.576-1.088-27.453,0.458-40.975c1.967-17.204,7.953-33.388,18.578-47.46c15.21-20.145,36.369-27.543,60.49-25.997
				c37.014,2.373,59.597,21.381,68.475,58.846c3.844,16.22,4.228,33.386,4.947,50.175c0.448,10.475-6.763,17.194-16.134,17.688
				c-8.721,0.46-14.028-4.928-14.575-14.161c-0.912-15.381-1.856-30.77-3.362-46.099c-0.455-4.634-2.81-9.081-4.295-13.614
				c-0.783,0.076-1.566,0.151-2.349,0.227c0,2.864-0.039,5.728,0.006,8.591c1.06,67.928,3.85,97.989,4.915,165.917
				c0.036,2.293,0.084,4.587,0.071,6.88c-0.074,12.462-5.271,19.014-15.597,19.695c-10.921,0.721-18.963-6.035-19.37-18.256
				c-1.183-35.525-3.404-33.209-4.145-68.75c-0.087-4.179-0.012-8.361-0.012-12.543
				C152.117,334.577,150.839,334.432,149.561,334.285z"/>
			<path fill="#FFFFFF" stroke="#779DFF" stroke-width="2" stroke-miterlimit="10" d="M102.755,133.65
				c0.478-26.359,21.848-47.151,48.214-46.909c26.587,0.244,48.549,22.849,47.743,49.14c-0.798,26.068-22.759,47.317-48.644,47.066
				C123.346,182.688,102.264,160.723,102.755,133.65z"/>
		</g>
	</g>
	<g id="_x33_t1gbQ_1_">
		<g>
			<path fill="#FFFFFF" stroke="#779DFF" stroke-width="2" stroke-miterlimit="10" d="M385.29,289.162
				c-2.325-5.303-4.363-10.329-6.772-15.17c-0.576-1.159-2.493-2.469-3.605-2.317c-1.118,0.152-2.503,1.882-2.907,3.188
				c-3.146,10.174-5.277,20.74-9.26,30.562c-7.788,19.205-20.246,25.956-40.404,21.185c-10.901-2.582-21.323-7.514-31.646-12.1
				c-5.758-2.558-7.444-9.328-4.916-14.842c2.605-5.678,8.639-8.038,14.953-5.973c8.029,2.628,15.994,5.525,24.16,7.632
				c8.249,2.128,10.912,0.483,12.24-7.929c1.822-11.537,4.884-23.4,3.774-34.77c-2.272-23.28-0.264-47.185-8.596-69.752
				c-1.197-3.246-2.706-5.227-6.189-6.474c-22.004-7.874-43.948-15.924-65.769-24.29c-3.17-1.215-6.699-3.938-7.979-6.872
				c-1.056-2.42,0.19-6.683,1.819-9.234c2.322-3.639,6.615-3.656,10.627-2.673c9.871,2.419,19.717,4.942,29.596,7.325
				c13.009,3.138,26.011,6.315,39.072,9.227c12.358,2.755,22.438-0.984,29.755-11.466c12.13-17.377,24.192-34.801,36.292-52.2
				c1.062-1.528,2.043-3.145,3.3-4.499c3.266-3.517,8.154-4.25,12.024-1.816c4.158,2.615,5.217,6.519,3.964,11.052
				c-0.488,1.767-1.475,3.413-2.349,5.053c-10.04,18.843-20.027,37.715-30.236,56.467c-1.571,2.885-1.474,5.027-0.146,7.934
				c10.914,23.903,16.314,49.072,16.897,75.32c0.044,1.968,0.743,3.938,1.255,5.876c4.009,15.2,8.44,30.303,11.872,45.631
				c1.3,5.809,0.837,12.182,0.246,18.205c-0.996,10.143-8.735,15.148-18.507,12.255c-10.338-3.062-16.332-10.697-19.393-20.548
				C376.625,297.236,379.529,292.629,385.29,289.162z"/>
			<path fill="#FFFFFF" stroke="#779DFF" stroke-width="2" stroke-miterlimit="10" d="M335.043,150.293
				c-17.8-0.132-31.807-14.648-31.713-32.869c0.085-16.776,14.864-31.394,31.736-31.392c18.439,0.003,32.756,14.647,32.447,33.193
				C367.229,136.402,352.575,150.422,335.043,150.293z"/>
		</g>
	</g>
	<path fill="#FFFFFF" stroke="#779DFF" stroke-width="2" stroke-miterlimit="10" d="M217.613,415.841
		c-2.388-6.042-8.504-13.758-7.004-19.474c2.471-9.41,12.204-4.323,19.025-3.502c20.236,2.436,32.181-3.68,42.468-21.193
		c3.388-5.77,2.776-9.597-2.681-13.04c-1.171-0.737-2.419-1.558-3.217-2.646c-2.335-3.187-4.462-6.526-6.669-9.807
		c3.883-1.541,7.683-4.141,11.66-4.441c19.799-1.494,39.637-2.502,59.472-3.448c16.5-0.788,22.464,4.581,23.187,20.851
		c0.789,17.75,1.471,35.51,1.747,53.272c0.055,3.403-1.979,6.838-3.049,10.259c-3.086-1.044-7.114-1.198-9.086-3.291
		c-6.62-7.027-12.148-5.557-19.716-0.873c-23.46,14.521-48.953,20.222-75.925,11.896
		C238.087,427.398,229.224,421.549,217.613,415.841z"/>
</g>
</svg>
