<?xml version="1.0" encoding="utf-8"?>
<!-- Generator: Adobe Illustrator 16.0.0, SVG Export Plug-In . SVG Version: 6.00 Build 0)  -->
<!DOCTYPE svg PUBLIC "-//W3C//DTD SVG 1.1//EN" "http://www.w3.org/Graphics/SVG/1.1/DTD/svg11.dtd">
<svg version="1.1" id="Capa_1" xmlns="http://www.w3.org/2000/svg" xmlns:xlink="http://www.w3.org/1999/xlink" x="0px" y="0px"
	 width="500px" height="500px" viewBox="0 0 500 500" enable-background="new 0 0 500 500" xml:space="preserve">
<circle fill="#FFFFFF" cx="366.602" cy="174.895" r="42.605"/>
<rect x="76.48" y="116.755" fill="#FFFFFF" width="223.02" height="309.745"/>
<g>
	<path fill="#779DFF" d="M171.09,358.438c16.457-17.588,32.273-34.871,48.55-51.707c6.999-7.24,14.933-13.58,22.498-20.266
		c1.502-1.326,3.209-2.445,4.908-3.523c4.052-2.565,8.397-4.944,12.767-1.125c4.506,3.94,4.863,9.316,2.619,14.451
		c-1.408,3.217-3.58,6.51-6.281,8.689c-27.87,22.482-50.443,50.02-73.999,76.646c-4.06,4.588-8.978,8.743-14.258,11.78
		c-2.331,1.341-7.737,0.628-9.734-1.271c-13.786-13.11-26.633-27.115-35.072-44.479c-5.112-10.518,2.561-25.38,14.142-27.949
		c5.128-1.138,7.554,1.481,10.142,5.448c6.922,10.606,14.341,20.89,21.601,31.272C169.525,357.193,170.379,357.768,171.09,358.438z"
		/>
	<path fill="#779DFF" d="M116.144,236.468c0-2.177,0-3.963,0-6.035c49.005,0,97.791,0,146.929,0c0,2.006,0,3.872,0,6.035
		C214.198,236.468,165.415,236.468,116.144,236.468z"/>
	<path fill="#779DFF" d="M263.264,181.465c0,2.133,0,3.783,0,5.748c-49.049,0-97.935,0-147.079,0c0-1.913,0-3.673,0-5.748
		C165.142,181.465,214.033,181.465,263.264,181.465z"/>
	<path fill="#779DFF" d="M263.204,205.055c0,2.046,0,3.802,0,5.833c-49.034,0-97.849,0-146.97,0c0-1.921,0-3.677,0-5.833
		C165.045,205.055,213.852,205.055,263.204,205.055z"/>
	<path fill="#779DFF" d="M116.085,259.641c0-1.92,0-3.572,0-5.604c48.946,0,97.822,0,147.019,0c0,1.688,0,3.441,0,5.604
		C214.36,259.641,165.479,259.641,116.085,259.641z"/>
	<path fill="#779DFF" d="M305.234,116.784c0,105.135,0,210.271,0,315.406c-78.239,0-156.48,0-234.72,0
		c0-105.136,0-210.271,0-315.406c13.438-0.051,26.877-0.198,40.314-0.084c3.346,0.029,4.775-0.872,4.477-4.376
		c-0.252-2.958-0.052-5.954-0.052-8.886c7.418,0,14.053,0,21.26,0c0,4.47,0,8.646,0,12.858c34.559,0,68.537,0,103.061,0
		c0-4.522,0-8.714,0-12.877c7.204,0,13.857,0,20.921,0c0,2.855,0.253,5.455-0.056,7.986c-0.53,4.338,1.278,5.379,5.398,5.318
		C278.967,116.529,292.102,116.734,305.234,116.784z M239.526,128.848c-34.823,0-68.815,0-103.288,0c0,5.559,0,10.833,0,16.257
		c-7.217,0-13.945,0-21.211,0c0-5.727,0-10.994,0-16.267c-11.024,0-21.498,0-32.499,0c0,1.907,0,3.551,0,5.194
		c0,93.489,0.035,186.977-0.105,280.466c-0.007,4.616,1.12,5.849,5.804,5.838c66.45-0.163,132.9-0.165,199.35,0.003
		c4.729,0.012,5.78-1.29,5.772-5.86c-0.136-93.488-0.102-186.978-0.102-280.466c0-1.637,0-3.274,0-5.138
		c-11.114,0-21.689,0-32.816,0c0,5.576,0,10.847,0,16.373c-7.175,0-13.794,0-20.906,0
		C239.526,139.662,239.526,134.389,239.526,128.848z"/>
</g>
<g>
	<path fill="#779DFF" d="M323.333,150.122c1.315-1.774,2.563-3.603,3.956-5.314c13.019-15.989,29.85-22.539,49.901-18.081
		c20.752,4.614,33.519,18.218,37.908,38.995c6.918,32.745-22.452,63.281-55.583,58.138c-30.139-4.679-48.683-33.458-40.489-62.818
		c0.131-0.471,0.09-0.99,0.129-1.487C320.547,156.411,321.94,153.266,323.333,150.122z M400.433,190.03
		c8.314-18.61-0.105-40.663-18.714-49.02c-18.592-8.348-40.658,0.032-49.052,18.629c-8.422,18.66,0.056,40.867,18.78,49.189
		C370.076,217.11,392.113,208.653,400.433,190.03z"/>
	<path fill="#779DFF" d="M394.886,277.729c-2.996-2.853-4.499-6.533-5.934-10.31c-4.45-11.711-9.012-23.379-13.386-34.689
		c7.723-2.979,15.32-5.91,23.324-8.997c0.941,2.627,2.01,5.785,3.199,8.897c3.682,9.621,7.425,19.218,11.116,28.834
		c4.058,10.576-1.868,18.738-13.151,18.161c-0.146-0.008-0.301,0.126-0.451,0.193C398.031,279.12,396.459,278.424,394.886,277.729z"
		/>
	<path fill="#779DFF" d="M378.078,148.524c-1.1,2.48-2.13,4.81-3.236,7.307c-11.791-3.73-20.938-0.337-27.26,10.537
		c-2.409-1.067-4.806-2.128-7.195-3.187C345.056,150.589,362.226,141.474,378.078,148.524z"/>
</g>
</svg>
