<?xml version="1.0" encoding="utf-8"?>
<!-- Generator: Adobe Illustrator 16.0.0, SVG Export Plug-In . SVG Version: 6.00 Build 0)  -->
<!DOCTYPE svg PUBLIC "-//W3C//DTD SVG 1.1//EN" "http://www.w3.org/Graphics/SVG/1.1/DTD/svg11.dtd">
<svg version="1.1" id="Capa_1" xmlns="http://www.w3.org/2000/svg" xmlns:xlink="http://www.w3.org/1999/xlink" x="0px" y="0px"
	 width="500px" height="500px" viewBox="0 0 500 500" enable-background="new 0 0 500 500" xml:space="preserve">
<g id="NsW0yS_1_">
	<g>
		<path fill="#FFFFFF" stroke="#779DFF" stroke-width="2" stroke-miterlimit="10" d="M72.349,178.307
			c3.635-12.893,9.694-24.253,22.486-29.947c5.96-2.653,12.758-4.762,19.192-4.804c57.224-0.368,114.451-0.219,171.677-0.208
			c0.604,0,1.208,0.203,2.897,0.506c-4.912,4.98-9.309,9.526-13.805,13.973c-9.042,8.944-16.721,21.21-27.616,25.785
			c-10.668,4.48-24.636,1.153-37.155,1.165c-31.734,0.03-63.468,0.01-95.707,0.01c0,68.988,0,137.729,0,206.896
			c68.643,0,137.383,0,206.817,0c0-2.44,0-4.748,0-7.056c0-39.519,0.137-79.038-0.146-118.554c-0.042-5.938,1.74-9.969,5.946-14
			c11.663-11.181,22.899-22.809,35.665-35.627c0,3.885,0,6.108,0,8.33c0,52.475,0,104.952,0,157.426
			c0,30.701-6.878,40.799-34.986,51.37c-73.428,0-146.853,0-220.28,0c-3.962-1.477-8.064-2.661-11.86-4.482
			c-12.882-6.179-19.471-17.26-23.126-30.504C72.349,325.16,72.349,251.734,72.349,178.307z"/>
		<path fill="#FFFFFF" stroke="#779DFF" stroke-width="2" stroke-miterlimit="10" d="M238.785,225.751
			c43.044-43.005,86.786-86.708,130.131-130.014c13.826,13.821,28.122,28.113,41.847,41.834
			c-43.216,43.165-86.948,86.845-130.176,130.021C267.182,254.174,252.787,239.766,238.785,225.751z"/>
		<path fill="#FFFFFF" stroke="#779DFF" stroke-width="2" stroke-miterlimit="10" d="M371.617,91.717
			c3.932-4.098,8.388-8.741,12.484-13.01c14.619,14.679,29.033,29.152,43.55,43.727c-4.198,4.191-8.75,8.734-12.884,12.86
			C400.389,120.774,386.064,106.307,371.617,91.717z"/>
		<path fill="#FFFFFF" stroke="#779DFF" stroke-width="2" stroke-miterlimit="10" d="M236.911,268.302c0-13.5,0-26.498,0-38.799
			c12.849,12.888,25.905,25.983,38.682,38.799C263.5,268.302,250.514,268.302,236.911,268.302z"/>
	</g>
</g>
<g>
	<path fill="#FFFFFF" stroke="#779DFF" stroke-width="2" stroke-miterlimit="10" d="M198.514,329.036H164.2v-99.534h34.314V329.036
		L198.514,329.036z M198.514,378H164.2v-34.115h34.314V378L198.514,378z"/>
</g>
</svg>
