<?xml version="1.0" encoding="utf-8"?>
<!-- Generator: Adobe Illustrator 16.0.0, SVG Export Plug-In . SVG Version: 6.00 Build 0)  -->
<!DOCTYPE svg PUBLIC "-//W3C//DTD SVG 1.1//EN" "http://www.w3.org/Graphics/SVG/1.1/DTD/svg11.dtd">
<svg version="1.1" id="Capa_1" xmlns="http://www.w3.org/2000/svg" xmlns:xlink="http://www.w3.org/1999/xlink" x="0px" y="0px"
	 width="500px" height="500px" viewBox="0 0 500 500" enable-background="new 0 0 500 500" xml:space="preserve">
<g id="PMM4Po_1_">
	<g>
		<path fill="#FFFFFF" stroke="#779DFF" stroke-width="2" stroke-miterlimit="10" d="M254.296,433.035
			c-4.572-0.352-6.133-0.46-7.693-0.592c-7.374-0.623-16.481,1.098-21.554-2.646c-3.831-2.827-2.189-12.708-3.536-19.338
			c-3.078-15.154-12.322-25.443-27.029-29.473c-14.191-3.889-27.915-0.893-37.16,11.004c-7.534,9.693-13.147,8.369-20.478,0.722
			c-9.179-9.575-18.662-18.862-28.154-28.131c-4.795-4.683-4.143-8.44,0.821-12.558c14.259-11.828,18.701-26.654,11.869-44.041
			c-6.417-16.328-18.9-22.576-40.746-22.684c-3.088-0.015-8.627-4.389-8.82-7.05c-1.097-15.144-0.922-30.38-1.165-45.585
			c-0.107-6.733,2.657-10.075,9.945-9.429c18.023,1.595,31.227-5.846,38.61-22.409c7.018-15.745,2.988-29.801-12.644-44.834
			c-4.108-3.95-5.684-7.264-1.318-11.75c10.884-11.184,21.461-22.698,32.901-33.279c2.005-1.854,9.307-1.41,11.277,0.685
			c12.617,13.423,27.07,18.644,44.358,11.149c17.046-7.39,24.42-21.201,22.8-39.58c-0.571-6.475,1.814-9.76,8.191-9.879
			c15.226-0.283,30.454-0.511,45.682-0.569c9.177-0.035,7.652,6.725,7.693,12.552c0.184,26.988,25.528,45.681,49.807,36.209
			c5.932-2.314,11.829-6.489,15.915-11.345c5.81-6.904,10.353-6.859,16.316-0.924c9.402,9.355,18.855,18.672,28.596,27.67
			c6.892,6.368,5.991,11.035-0.909,17.08c-12.107,10.607-15.049,24.483-9.896,39.502c4.854,14.148,15.277,22.413,30.179,24.488
			c3.829,0.533,8.089-0.859,11.622,0.278c3.266,1.05,8.149,4.147,8.314,6.61c1.042,15.544,0.974,31.163,1.261,46.757
			c0.123,6.648-3.262,8.379-9.64,8.301c-20.294-0.252-33.012,7.652-39.229,23.482c-6.164,15.69-2.142,30.41,12.938,43.785
			c5.505,4.883,5.505,8.752,0.774,13.622c-10.059,10.354-20.233,20.603-30.048,31.185c-5.918,6.38-10.199,4.819-15.169-1.229
			c-9.928-12.082-23.138-16.086-37.929-12.003c-15.223,4.203-24.517,14.854-27.318,30.547c-1.183,6.621,0.354,18.006-2.625,19.229
			C272.048,432.28,261.395,432.093,254.296,433.035z M249.094,131.904c-67.412,0.983-121.548,56.141-120.059,122.325
			c1.495,66.448,55.995,119.391,121.765,118.285c67.55-1.137,121.665-56.252,120.114-122.334
			C369.356,183.786,314.93,130.944,249.094,131.904z"/>
	</g>
</g>
<g id="NavVlQ_2_">
	<g>
		<path fill="#FFFFFF" stroke="#779DFF" stroke-width="2" stroke-miterlimit="10" d="M248.909,296.757
			c-0.3,1.739-0.829,3.474-0.865,5.218c-0.439,21.344,0.396,20.137-0.337,41.471c-0.123,3.574-1.719,7.764-4.053,10.426
			c-2.805,3.199-7.318,3.311-11.438,1.408c-4.395-2.029-5.379-5.912-5.298-10.206c0.264-13.832,0.832-27.662,0.901-41.495
			c0.144-29.001-0.982-35.444-0.982-64.446c-0.424-0.099-0.848-0.198-1.272-0.297c-1.116,5.839-2.59,11.638-3.235,17.528
			c-0.536,4.892-0.073,9.892-0.094,14.843c-0.024,5.619-2.167,8.43-6.878,9.11c-4.912,0.711-10.292-2.191-10.698-7.23
			c-0.651-8.088-0.648-16.357,0.273-24.412c1.172-10.25,4.738-19.892,11.068-28.276c9.062-12.002,21.668-16.41,36.039-15.488
			c22.052,1.414,35.507,12.738,40.796,35.059c2.29,9.664,2.52,19.891,2.947,29.895c0.267,6.24-4.029,10.244-9.612,10.537
			c-5.196,0.274-8.356-2.936-8.685-8.437c-0.543-9.164-1.105-18.332-2.002-27.465c-0.271-2.761-1.674-5.41-2.56-8.111
			c-0.466,0.045-0.933,0.09-1.399,0.135c0,1.706-0.022,3.413,0.004,5.118c0.631,40.47,2.294,58.38,2.928,98.85
			c0.021,1.366,0.05,2.733,0.042,4.099c-0.044,7.426-3.14,11.328-9.292,11.734c-6.506,0.429-11.298-3.596-11.54-10.876
			c-0.705-21.166-2.028-19.786-2.47-40.96c-0.053-2.49-0.008-4.982-0.008-7.473C250.432,296.932,249.67,296.844,248.909,296.757z"/>
		<path fill="#FFFFFF" stroke="#779DFF" stroke-width="2" stroke-miterlimit="10" d="M221.023,177.223
			c0.285-15.704,13.017-28.091,28.725-27.947c15.84,0.145,28.924,13.613,28.445,29.277c-0.477,15.531-13.561,28.19-28.981,28.041
			C233.29,206.438,220.73,193.352,221.023,177.223z"/>
	</g>
</g>
</svg>
