<?xml version="1.0" encoding="utf-8"?>
<!-- Generator: Adobe Illustrator 16.0.0, SVG Export Plug-In . SVG Version: 6.00 Build 0)  -->
<!DOCTYPE svg PUBLIC "-//W3C//DTD SVG 1.1//EN" "http://www.w3.org/Graphics/SVG/1.1/DTD/svg11.dtd">
<svg version="1.1" id="Capa_1" xmlns="http://www.w3.org/2000/svg" xmlns:xlink="http://www.w3.org/1999/xlink" x="0px" y="0px"
	 width="500px" height="500px" viewBox="0 0 500 500" enable-background="new 0 0 500 500" xml:space="preserve">
<g>
	<g>
		<path fill="#FFFFFF" stroke="#779DFF" stroke-width="2" stroke-miterlimit="10" d="M64.353,209.486
			c-2.02,25.57,6.263,35.116,32.206,37.079c31.187,2.359,62.391,4.625,93.627,6.121c6.274,0.299,12.719-3.027,19.086-4.684
			c-2.8-5.526-5.465-11.128-8.479-16.534c-26.282-1.474-52.251-3.38-76.878-5.242c-1.736-0.131-3.414-0.297-4.988-0.492
			c-25.79-3.194-35.86-16.389-33.669-44.119c1.553-19.666,3.41-42.225,5.723-65.619c-3.071-2.606-8.297-3.634-12.295-5.562
			c-2.335,5.14-6.177,10.117-6.752,15.446C68.929,153.698,66.556,181.589,64.353,209.486z"/>
		<path fill="#FFFFFF" stroke="#779DFF" stroke-width="2" stroke-miterlimit="10" d="M99.215,182.718
			c-0.831,10.521,0.231,17.36,3.341,21.528c1.89,2.532,5.822,6.075,18.092,7.595c1.354,0.168,2.808,0.31,4.323,0.425
			c20.939,1.584,42.852,3.198,65.073,4.551c9.416,0.573,18.881,1.104,28.36,1.558c2.544,0.122,5.587-0.778,8.836-1.869
			c-1.552-3.1-3.076-6.083-4.722-9.03c-0.445-0.797-2-2.068-2.836-2.752c-5.906-4.835-8.821-10.139-8.773-15.858
			c0.039-4.641,2.022-9.555,5.985-14.721c18.622-24.279,37.915-33.234,64.51-29.94c0.973,0.12,1.965,0.262,2.968,0.419
			c3.274,0.51,6.706,1.205,10.243,2.081c2.675,0.664,5.402,1.673,8.039,2.648c3.283,1.214,6.678,2.47,9.354,2.802
			c2.503,0.31,3.568,0.128,4.834-3.042c1.391-3.479-1.514-10.978-3.847-17.004c-0.994-2.569-2.014-5.203-2.832-7.771
			c-4.848-3.234-9.309-6.394-13.643-9.463c-9.881-6.998-18.416-13.042-27.631-17.185c-11.822-5.315-24.067-8.785-36.398-10.312
			c-25.063-3.104-51.571,1.669-78.785,14.185c-6.216,2.858-13.558,5.658-20.89,4.75c-6.976-0.864-12.971-4.84-18.332-12.155
			c-0.502-0.662-2.796-1.564-4.626-2.236c-1.504,2.729-2.859,5.295-3.085,7.391c-0.983,9.097-1.891,18.15-2.736,27.044
			C102.138,146.413,100.562,165.656,99.215,182.718z"/>
	</g>
	<g>
		<path fill="#FFFFFF" stroke="#779DFF" stroke-width="2" stroke-miterlimit="10" d="M435.647,276.943
			c2.02-25.569-6.265-35.115-32.206-37.078c-31.188-2.359-62.393-4.624-93.627-6.12c-6.274-0.3-12.719,3.028-19.086,4.683
			c2.799,5.526,5.465,11.128,8.479,16.534c26.282,1.474,52.251,3.38,76.878,5.242c1.736,0.131,3.414,0.297,4.988,0.491
			c25.79,3.195,35.858,16.39,33.669,44.119c-1.553,19.666-3.41,42.226-5.723,65.619c3.069,2.605,8.297,3.635,12.295,5.563
			c2.335-5.141,6.177-10.117,6.752-15.446C431.071,332.732,433.444,304.841,435.647,276.943z"/>
		<path fill="#FFFFFF" stroke="#779DFF" stroke-width="2" stroke-miterlimit="10" d="M400.785,303.712
			c0.831-10.521-0.231-17.36-3.341-21.528c-1.892-2.531-5.822-6.074-18.094-7.595c-1.354-0.168-2.808-0.31-4.321-0.425
			c-20.939-1.584-42.854-3.198-65.073-4.551c-9.416-0.573-18.881-1.104-28.36-1.559c-2.544-0.121-5.587,0.777-8.836,1.868
			c1.553,3.101,3.076,6.083,4.723,9.03c0.444,0.797,2,2.066,2.836,2.752c5.906,4.835,8.82,10.141,8.772,15.857
			c-0.039,4.642-2.022,9.556-5.985,14.722c-18.621,24.278-37.915,33.233-64.509,29.938c-0.972-0.119-1.964-0.262-2.967-0.418
			c-3.275-0.511-6.706-1.205-10.243-2.082c-2.675-0.664-5.403-1.672-8.04-2.646c-3.283-1.214-6.677-2.471-9.355-2.803
			c-2.503-0.311-3.568-0.129-4.834,3.041c-1.389,3.479,1.514,10.979,3.847,17.004c0.995,2.57,2.015,5.203,2.832,7.771
			c4.847,3.234,9.309,6.395,13.643,9.463c9.881,6.998,18.415,13.043,27.631,17.187c11.821,5.313,24.068,8.785,36.398,10.312
			c25.063,3.104,51.571-1.669,78.785-14.185c6.216-2.858,13.558-5.658,20.89-4.75c6.978,0.862,12.973,4.84,18.332,12.153
			c0.502,0.662,2.798,1.564,4.626,2.236c1.506-2.729,2.859-5.295,3.085-7.391c0.983-9.098,1.893-18.15,2.736-27.044
			C397.862,340.018,399.438,320.773,400.785,303.712z"/>
	</g>
</g>
</svg>
