<?xml version="1.0" encoding="utf-8"?>
<!-- Generator: Adobe Illustrator 16.0.0, SVG Export Plug-In . SVG Version: 6.00 Build 0)  -->
<!DOCTYPE svg PUBLIC "-//W3C//DTD SVG 1.1//EN" "http://www.w3.org/Graphics/SVG/1.1/DTD/svg11.dtd">
<svg version="1.1" id="Capa_1" xmlns="http://www.w3.org/2000/svg" xmlns:xlink="http://www.w3.org/1999/xlink" x="0px" y="0px"
	 width="500px" height="500px" viewBox="0 0 500 500" enable-background="new 0 0 500 500" xml:space="preserve">
<path fill="#FFFFFF" stroke="#00D0EF" stroke-width="3" stroke-miterlimit="10" d="M365.067,392.667
	c-1.501-24.992-1.675-50.586-7.539-74.679c-9.82-40.327-33.183-78.34-89.146-86.609c23.483-7.832,41.085-29.932,42.022-55.992
	c1.188-33.073-26.412-61.703-59.891-62.122c-33.225-0.416-60.244,25.67-60.947,58.843c-0.584,27.592,16.532,50.966,40.9,59.174
	c-31.592,4.967-58.559,23.015-74.57,53.014c-15.378,28.812-21.68,59.994-20.971,92.548c0.184,8.456,0.469,17.145,2.521,25.271
	c2.96,11.716,14.907,18.515,26.662,16.762c11.741-1.751,17.034-8.765,17.087-22.854c0.046-12.373-1.109-24.867,0.238-37.09
	c1.619-14.693,5.323-29.156,8.124-43.718c1.044,0.254,2.088,0.507,3.132,0.761c0,37.676,0.063,75.027,0.077,113.027h112.866
	c-0.146-11-0.279-22.581-0.365-33.872c-0.22-28.45-0.047-56.905-0.047-85.358c0.895-0.209,1.783-0.418,2.678-0.627
	c2.201,6.773,5.694,13.422,6.376,20.348c2.233,22.82,3.672,45.729,4.984,68.631c0.919,16.019,12.692,24.542,28.057,19.688
	C359.61,413.926,365.787,404.654,365.067,392.667z"/>
<g>
	<path fill="#FFFFFF" stroke="#00D0EF" stroke-width="3" stroke-miterlimit="10" d="M408.102,49.854
		c-17.489,6.694-35.573,13.615-54.021,20.674c6.549,3.466,13.016,6.887,19.604,10.373c-13.221,24.823-30.437,43.071-56.747,48.924
		c1.158,0.326,2.302,0.72,3.48,0.966c16.467,3.439,32.997,2.861,49.604-5.177c12.422-6.011,22.579-15.299,31.026-26.903
		c1.503-2.065,2.5-2.023,4.213-1.074c5.479,3.035,11.051,5.898,16.104,8.571C416.974,87.546,412.513,68.593,408.102,49.854z"/>
</g>
<g>
	<path fill="#FFFFFF" stroke="#00D0EF" stroke-width="3" stroke-miterlimit="10" d="M244.941,29.04
		c17.493,6.694,35.577,13.615,54.022,20.674c-6.549,3.466-13.016,6.887-19.604,10.373c13.221,24.823,30.437,43.071,56.748,48.924
		c-1.159,0.326-2.303,0.72-3.481,0.966c-16.467,3.439-32.997,2.861-49.604-5.177c-12.422-6.011-22.582-15.299-31.026-26.903
		c-1.503-2.065-2.5-2.023-4.213-1.074c-5.478,3.035-11.05,5.898-16.103,8.571C236.069,66.732,240.53,47.779,244.941,29.04z"/>
</g>
</svg>
