<?xml version="1.0" encoding="utf-8"?>
<!-- Generator: Adobe Illustrator 16.0.0, SVG Export Plug-In . SVG Version: 6.00 Build 0)  -->
<!DOCTYPE svg PUBLIC "-//W3C//DTD SVG 1.1//EN" "http://www.w3.org/Graphics/SVG/1.1/DTD/svg11.dtd">
<svg version="1.1" id="Capa_1" xmlns="http://www.w3.org/2000/svg" xmlns:xlink="http://www.w3.org/1999/xlink" x="0px" y="0px"
	 width="500px" height="500px" viewBox="0 0 500 500" enable-background="new 0 0 500 500" xml:space="preserve">
<path fill="#FFFFFF" stroke="#00D0EF" stroke-width="3" stroke-miterlimit="10" d="M192.537,261.516
	c0.224,14.918,0.116,33.021,0.179,54.422l-40.787-61.695c-18.105-27.385-46.381-16.617-54.868-3.35l82.597,150.284
	c11.663,21.223,46.294,31.974,79.792,33.008c69.249,2.147,111.709-42.835,113.287-137.856l29.577-144.079
	c6.318-30.798-37.257-39.398-43.382-8.255l-20.021,101.809c-1.235-1.608-3.157-3.204-4.98-4.57l13.736-136.76
	c3.172-31.613-40.923-32.033-43.814-5.489l-13.746,126.213c-1.285-0.294-3.926-0.351-4.879-0.391l3.373-145.556
	c0.68-29.274-43.472-30.039-44.146-0.966l-3.611,155.85c-2.008,1.021-3.971,2.125-5.885,3.308L223.295,86.994
	c-2.221-28.629-46.323-26.246-44.014,3.597L192.537,261.516z"/>
</svg>
