<?xml version="1.0" encoding="utf-8"?>
<!-- Generator: Adobe Illustrator 16.0.0, SVG Export Plug-In . SVG Version: 6.00 Build 0)  -->
<!DOCTYPE svg PUBLIC "-//W3C//DTD SVG 1.1//EN" "http://www.w3.org/Graphics/SVG/1.1/DTD/svg11.dtd">
<svg version="1.1" id="Capa_1" xmlns="http://www.w3.org/2000/svg" xmlns:xlink="http://www.w3.org/1999/xlink" x="0px" y="0px"
	 width="500px" height="500px" viewBox="0 0 500 500" enable-background="new 0 0 500 500" xml:space="preserve">
<g id="vGMgKX_1_">
	<g>
		<path fill="#FFFFFF" stroke="#00D0EF" stroke-width="3" stroke-miterlimit="10" d="M268.607,57.941c0,18.568,0,37.135,0,56.624
			c39.075,0,77.923,0,117.278,0c0,8.263,0,15.613,0,23.763c-38.844,0-77.688,0-117.055,0c0,90.542,0,180.299,0,270.991
			c17.636,0,35.302,0,54.048,0c0,8.566,0,16.224,0,23.88c-48.587,0-97.174,0-145.761,0c0-7.451,0-14.902,0-23.334
			c18.247,0,35.888,0,54.042,0c0-90.729,0-180.472,0-270.986c-38.754,0-77.609,0-117,0c0-8.094,0-15.431,0-23.752
			c38.822,0,77.64,0,117.23,0c0-19.703,0-38.444,0-57.185C243.797,57.941,256.203,57.941,268.607,57.941z"/>
		<path fill="#FFFFFF" stroke="#00D0EF" stroke-width="3" stroke-miterlimit="10" d="M51.517,281.234
			c1.48-2.588,3.232-5.062,4.4-7.781c17.776-41.443,35.471-82.92,53.202-124.382c1.201-2.809,2.537-5.561,4.419-9.67
			c1.761,3.552,3.157,6.058,4.279,8.68c18.353,42.878,36.453,85.867,55.172,128.585c3.955,9.025,2.627,16.605-3.771,22.52
			c-6.291,5.814-13.669,11.269-21.556,14.383c-20.529,8.109-41.755,8.289-62.981,1.926c-14.64-4.393-26.611-12.035-33.165-26.504
			C51.517,286.404,51.517,283.82,51.517,281.234z M165.376,283.4c-17.229-40.25-34.095-79.654-51.71-120.809
			C95.94,204.067,79.111,243.439,62.03,283.4C96.913,283.4,130.529,283.4,165.376,283.4z"/>
		<path fill="#FFFFFF" stroke="#00D0EF" stroke-width="3" stroke-miterlimit="10" d="M448.483,288.988
			c-6.73,14.716-18.906,22.576-33.937,26.652c-26.789,7.264-52.75,6.152-76.518-9.564c-13.771-9.105-15.756-17.84-9.32-32.895
			c17.727-41.466,35.446-82.932,53.184-124.389c1.188-2.776,2.51-5.496,4.339-9.485c1.554,3.26,2.683,5.43,3.644,7.672
			c18.068,42.158,36.099,84.331,54.209,126.471c1.17,2.722,2.92,5.191,4.4,7.779C448.483,283.82,448.483,286.404,448.483,288.988z
			 M386.299,162.567c-17.671,41.345-34.504,80.73-51.532,120.568c34.938,0,68.687,0,103.126,0
			C420.735,243.039,403.952,203.82,386.299,162.567z"/>
	</g>
</g>
</svg>
