<?xml version="1.0" encoding="utf-8"?>
<!-- Generator: Adobe Illustrator 16.0.0, SVG Export Plug-In . SVG Version: 6.00 Build 0)  -->
<!DOCTYPE svg PUBLIC "-//W3C//DTD SVG 1.1//EN" "http://www.w3.org/Graphics/SVG/1.1/DTD/svg11.dtd">
<svg version="1.1" id="Capa_1" xmlns="http://www.w3.org/2000/svg" xmlns:xlink="http://www.w3.org/1999/xlink" x="0px" y="0px"
	 width="500px" height="500px" viewBox="0 0 500 500" enable-background="new 0 0 500 500" xml:space="preserve">
<g>
	<path fill="#FFFFFF" stroke="#00D0EF" stroke-width="3" stroke-miterlimit="10" d="M218.282,218.67
		c-3.626-3.647-3.541-5.997-0.179-9.269c-1.318-2.66-2.843-5.001-3.692-7.566c-5.849-17.682-11.557-35.41-17.309-53.124
		c-0.216-0.667-0.462-1.327-0.624-2.007c-0.88-3.685,0.591-5.617,4.399-5.629c10.149-0.032,20.299-0.011,30.449-0.011
		c1.091,0,2.181,0,3.468,0c0-6.059,0-11.931,0-18.269c-2.953,0-5.917,0-8.881,0c-4.422,0-8.844,0.043-13.265-0.012
		c-4.695-0.058-6.587-1.981-6.6-6.611c-0.016-5.627-0.018-11.255,0.001-16.882c0.016-4.52,1.911-6.45,6.379-6.464
		c7.413-0.023,14.825-0.006,22.564-0.006c0-7.458-0.004-14.661,0.001-21.863c0.004-5.34,1.712-7.076,6.974-7.083
		c5.326-0.007,10.652-0.007,15.979,0c5.217,0.007,7,1.795,7.019,7.104c0.021,7.131,0.007,14.261,0.007,21.842
		c1.107,0,2.067,0,3.026,0c6.632,0,13.267-0.031,19.896,0.013c3.748,0.025,5.883,1.944,5.969,5.683
		c0.142,6.127,0.139,12.261,0.011,18.388c-0.083,3.949-2.237,5.84-6.463,5.874c-7.324,0.059-14.647,0.016-22.206,0.016
		c0,6.064,0,11.939,0,18.271c0.972,0,2.029,0,3.091,0c10.05,0,20.101-0.008,30.146,0.004c4.773,0.006,6.164,1.879,4.69,6.451
		c-6.015,18.679-12.021,37.362-18.163,55.999c-0.656,1.99-2.185,3.692-3.367,5.623c3.455,3.33,3.561,6.038,0.017,9.376
		c3.132,3.991,3.272,5.139,0.896,9.389c1.536,0,2.877-0.002,4.219,0c6.488,0.01,8.723,3.679,5.463,9.649
		c1.826,0,3.479-0.019,5.13,0.004c4.087,0.055,6.084,1.961,6.22,6.076c0.089,2.71,0.09,5.428-0.004,8.14
		c-0.143,4.039-2.145,6.021-6.268,6.084c-5.604,0.084-11.213,0.021-17.313,0.021c4.111,38.385,8.188,76.439,12.292,114.764
		c1.565,0,2.952-0.002,4.339,0.002c6.254,0.019,8.523,3.869,5.168,9.647c1.961,0,3.691-0.026,5.421,0.006
		c3.761,0.073,5.894,1.94,5.979,5.681c0.142,6.127,0.125,12.263-0.018,18.389c-0.032,1.515-0.8,3.013-1.33,4.874
		c1.575,0,3.313-0.029,5.047,0.006c3.634,0.073,5.729,1.868,5.934,5.407c0.179,3.104,0.167,6.231,0.009,9.34
		c-0.174,3.41-2.134,5.247-5.562,5.54c-0.8,0.065-1.607,0.031-2.411,0.031c-43.212,0.001-86.422,0.002-129.633,0
		c-6.728,0-8.098-1.384-8.099-8.145c0-2.211-0.056-4.423,0.016-6.632c0.11-3.358,2.138-5.402,5.477-5.536
		c1.804-0.073,3.612-0.013,5.745-0.013c-2.734-4.479-1.287-9.227-1.553-13.802c-0.186-3.206-0.101-6.434-0.015-9.646
		c0.09-3.338,2.164-5.362,5.52-5.487c1.804-0.067,3.613-0.014,5.747-0.014c-1.639-2.771-2.889-5.877-0.01-7.857
		c2.197-1.513,5.291-1.723,8.672-2.711c3.993-37.222,8.075-75.278,12.212-113.844c-3.005,0-5.775,0.003-8.545-0.001
		c-2.814-0.004-5.635,0.111-8.439-0.054c-3.576-0.21-5.453-2.271-5.518-5.836c-0.051-2.813-0.044-5.628-0.003-8.441
		c0.057-3.925,2.04-5.91,5.946-5.989c1.694-0.034,3.389-0.006,4.627-0.006c-0.211-2.105-1.062-4.341-0.418-5.995
		c0.597-1.533,2.631-2.957,4.328-3.49c1.896-0.597,4.124-0.137,6.308-0.137C215.012,223.15,215.122,222.318,218.282,218.67z"/>
</g>
</svg>
