<?xml version="1.0" encoding="utf-8"?>
<!-- Generator: Adobe Illustrator 16.0.0, SVG Export Plug-In . SVG Version: 6.00 Build 0)  -->
<!DOCTYPE svg PUBLIC "-//W3C//DTD SVG 1.1//EN" "http://www.w3.org/Graphics/SVG/1.1/DTD/svg11.dtd">
<svg version="1.1" id="Capa_1" xmlns="http://www.w3.org/2000/svg" xmlns:xlink="http://www.w3.org/1999/xlink" x="0px" y="0px"
	 width="500px" height="500px" viewBox="0 0 500 500" enable-background="new 0 0 500 500" xml:space="preserve">
<path fill="#FFFFFF" stroke="#00D0EF" stroke-width="3" stroke-miterlimit="10" d="M394.347,160.771
	c0-12.319-0.808-24.707,0.241-36.935c0.938-10.911,9.774-18.235,20.178-19.07c11.238-0.902,20.644,5.014,24.021,15.512
	c0.941,2.935,1.211,6.195,1.221,9.308c0.09,27.878,0.149,55.757,0.019,83.635c-0.077,16.163-8.82,25.035-25.094,25.16
	c-27.589,0.213-55.183,0.206-82.771-0.006c-14.802-0.114-24.882-9.644-24.963-22.845c-0.081-13.192,9.9-22.696,24.707-23.205
	c7.392-0.254,14.801-0.044,23.397-0.044c-7.771-16.502-18.503-29.034-31.317-39.544c-77.788-63.787-191.792-24.976-214.649,72.898
	C92.17,299.122,144.5,374.684,219.484,384.688c67.528,9.012,127.307-29.787,146.67-95.188c4.687-15.831,13.828-23.521,26.28-22.111
	c14.664,1.659,23.521,15.021,19.569,30.394c-8.959,34.854-26.438,64.864-53.518,88.625C270.984,463.18,141.8,442.035,82.957,341.6
	C29.105,249.68,73.759,124.563,173.632,87.53c81.913-30.374,166.071-3.261,214.936,69.234c1.061,1.575,2.255,3.06,3.387,4.587
	C392.75,161.158,393.548,160.964,394.347,160.771z"/>
<path fill="#FFFFFF" stroke="#00D0EF" stroke-width="3" stroke-miterlimit="10" d="M298,233.001c0-2.398-0.107-4.795-0.152-7.192
	c0-0.835-0.035-1.67-0.037-2.505c-0.002-0.655-0.056-1.262-0.104-1.849c-0.004-0.196,0.167-0.391,0.163-0.587
	c-0.012-0.082,0.132-0.146,0.132-0.227c0-0.019,0-0.042,0-0.058c0-5.969-3.729-9.278-9.715-9.318
	c-10.591-0.07-21.362-0.265-31.951-0.265c-1.409,0-3.167,0-4.758,0c-0.011,0-0.019,0-0.025,0s-0.006,0-0.051,0
	c0-13,0.026-23.28-0.009-34.665c-0.028-8.476-2.878-11.227-11.204-11.238c-8.503-0.011-17.007,0.041-25.51,0.052
	c-8.401,0.011-11.128,2.967-11.134,11.493c-0.008,11.402-0.002,22.119-0.002,34.75c-12.767,0-24.132-0.015-35.863,0.021
	c-7.134,0.022-10.24,3.109-10.265,10.326c-0.005,1.479,0.315,2.968,0.308,4.45c-0.074,2.74,0.177,5.484,0.177,8.224
	c0,1.529,0,3.058,0,4.587c0,2.397-0.289,4.795-0.245,7.192c0,0.835-0.164,1.671-0.161,2.506c0.002,0.655-0.044,1.263,0.008,1.85
	c0.004,0.195-0.033,0.392-0.028,0.586c0.009,0.078,0.01,0.142,0.02,0.22c0,0.06-0.009,0.114-0.008,0.188
	c0.137,5.969,3.54,9.217,9.525,9.257c10.589,0.07,21.173,0.204,31.762,0.204c1.409,0,3.167,0,4.758,0c0.008,0,0.017,0,0.025,0
	c0.007,0,0.006,0,0.051,0c0,11-0.028,59.281,0.009,70.666c0.028,8.479,2.878,11.229,11.204,11.239
	c8.503,0.011,17.007-0.04,25.51-0.054c8.401-0.01,11.125-2.601,11.131-11.127c0.008-11.5,0.002-59.726,0.002-70.726
	c-0.004,0,0.438,0,0.438,0s0-0.233,0-0.412c13,0,23.917,0.026,35.65-0.01c7.136-0.022,10.127-3.104,10.152-10.32
	c0.006-1.482,0.026-2.965,0.032-4.448c0.074-2.74,0.163-5.481,0.163-8.222C298,236.06,298,234.53,298,233.001z M158.531,254.831
	c1.231,2.563,3.515,4.004,7.092,4.45C162.026,258.839,159.746,257.415,158.531,254.831z M165.632,259.283
	c0.486,0.06,1.03,0.076,1.564,0.1C166.661,259.359,166.117,259.342,165.632,259.283z M287.236,213.049
	C287.238,213.049,287.238,213.049,287.236,213.049c-7.051-0.087-14.125,0.28-21.178,0.28
	C273.119,213.329,280.18,212.961,287.236,213.049z"/>
</svg>
