<?xml version="1.0" encoding="utf-8"?>
<!-- Generator: Adobe Illustrator 16.0.0, SVG Export Plug-In . SVG Version: 6.00 Build 0)  -->
<!DOCTYPE svg PUBLIC "-//W3C//DTD SVG 1.1//EN" "http://www.w3.org/Graphics/SVG/1.1/DTD/svg11.dtd">
<svg version="1.1" id="Capa_1" xmlns="http://www.w3.org/2000/svg" xmlns:xlink="http://www.w3.org/1999/xlink" x="0px" y="0px"
	 width="500px" height="500px" viewBox="0 0 500 500" enable-background="new 0 0 500 500" xml:space="preserve">
<g>
	<path fill="#FFFFFF" stroke="#00D0EF" stroke-width="3" stroke-miterlimit="10" d="M368.308,236.192c0,6.228,0,11.625,0,17.225
		c-6.876,0-13.523,0.006-20.176-0.001c-25.503-0.025-51.006-0.131-76.509-0.063c-25.927,0.065-51.853,0.354-77.78,0.451
		c-20.624,0.073-41.249-0.104-61.871,0.092c-4.673,0.043-5.888-1.799-5.919-6.109c-0.08-11.104-0.23-11.472,10.725-11.496
		c56.031-0.122,112.062-0.03,168.093-0.029c18.474,0,36.948-0.046,55.421-0.07C362.71,236.19,365.128,236.192,368.308,236.192z"/>
	<path fill="#FFFFFF" stroke="#00D0EF" stroke-width="3" stroke-miterlimit="10" d="M395.653,330.613c-7.236,0-14.223,0-21.478,0
		c0-57.293,0-114.188,0-171.444c7.146,0,13.949,0,21.478,0C395.653,216.229,395.653,273.219,395.653,330.613z"/>
	<path fill="#FFFFFF" stroke="#00D0EF" stroke-width="3" stroke-miterlimit="10" d="M98.678,159.166c7.147,0,13.96,0,21.502,0
		c0,57.088,0,114.073,0,171.439c-7.292,0-14.28,0-21.502,0C98.678,273.299,98.678,216.406,98.678,159.166z"/>
	<path fill="#FFFFFF" stroke="#00D0EF" stroke-width="3" stroke-miterlimit="10" d="M92.791,312.792c-7.196,0-14.18,0-21.581,0
		c0-45.209,0-90.164,0-135.588c7.075,0,14.064,0,21.581,0C92.791,222.226,92.791,267.316,92.791,312.792z"/>
	<path fill="#FFFFFF" stroke="#00D0EF" stroke-width="3" stroke-miterlimit="10" d="M423.049,312.793c-7.221,0-14.204,0-21.587,0
		c0-45.23,0-90.161,0-135.566c7.085,0,14.076,0,21.587,0C423.049,222.084,423.049,267.023,423.049,312.793z"/>
	<path fill="#FFFFFF" stroke="#00D0EF" stroke-width="3" stroke-miterlimit="10" d="M44,194.864c7.124,0,14.103,0,21.412,0
		c0,33.316,0,66.312,0,99.854c-7.053,0-14.003,0-21.412,0C44,261.536,44,228.388,44,194.864z"/>
	<path fill="#FFFFFF" stroke="#00D0EF" stroke-width="3" stroke-miterlimit="10" d="M450.414,294.939c-7.305,0-14.104,0-21.358,0
		c0-33.426,0-66.548,0-100.042c7.063,0,14.017,0,21.358,0C450.414,228.261,450.414,261.219,450.414,294.939z"/>
</g>
</svg>
