<?xml version="1.0" encoding="utf-8"?>
<!-- Generator: Adobe Illustrator 16.0.0, SVG Export Plug-In . SVG Version: 6.00 Build 0)  -->
<!DOCTYPE svg PUBLIC "-//W3C//DTD SVG 1.1//EN" "http://www.w3.org/Graphics/SVG/1.1/DTD/svg11.dtd">
<svg version="1.1" id="Capa_1" xmlns="http://www.w3.org/2000/svg" xmlns:xlink="http://www.w3.org/1999/xlink" x="0px" y="0px"
	 width="500px" height="500px" viewBox="0 0 500 500" enable-background="new 0 0 500 500" xml:space="preserve">
<g>
	<path fill="#FFFFFF" stroke="#00D0EF" stroke-width="3" stroke-miterlimit="10" d="M387.036,311.1
		c0.081-1.115,0.253-2.265,0.179-1.631c11.527-5.675,21.986-9.58,31.053-15.57c19.468-12.854,32.62-31.547,43.808-51.644
		c7.153-12.857,5.763-22.464-3.647-27.32c-9.089-4.691-16.058-0.1-24.468,12.051c-9.64,13.928-20.742,26.905-31.911,39.683
		c-5.168,5.912-12.604,6.038-19.765,2.78c-6.994-3.182-14.044-6.268-20.871-9.779c-5.323-2.738-10.294-5.152-14.396,0.993
		c-4.199-2.731-7.76-6.692-11.74-7.179c-4.104-0.502-8.62,2.381-14.908,4.414c2.212-3.709,3.482-5.844,4.758-7.979
		c-1.134,1.13-2.268,2.259-3.401,3.388c-6.523-6.973-13.052-13.945-19.575-20.917c0.834-0.316,1.67-0.633,2.506-0.949
		c-5.389-0.408-10.778-0.816-16.168-1.224c1.104,0.705,2.207,1.411,3.31,2.116c-7.304,6.56-14.608,13.119-21.55,19.353
		c7.686,4.463,17.656,9.912,27.195,16.03c2.334,1.497,4.545,5.226,4.643,7.958c0.65,18.411,1.316,36.326,1.861,55.326h81.822
		C386.145,324,386.554,317.704,387.036,311.1z"/>
	<path fill="#FFFFFF" stroke="#00D0EF" stroke-width="3" stroke-miterlimit="10" d="M193.608,286.802
		c0.573-11.747-0.518-20.997-14.03-24.214c-3.423-0.814-6.574-3.441-9.462-5.716c-5.591-4.406-10.626-3.952-16.14,0.253
		c-1.821,1.389-4.789,1.598-7.263,1.721c-3.524,0.176-7.342-1.127-10.557-0.179c-5.13,1.513-9.87,4.349-14.771,6.634
		c-18.895,8.807-23.037,7.92-36.59-7.879c-0.926-1.08-1.827-2.195-2.614-3.379c-6.616-9.943-13.105-19.972-19.831-29.84
		c-5.026-7.374-13.886-9.733-20.879-5.886c-7.252,3.99-9.988,12.338-6.698,20.675c0.623,1.579,1.488,3.074,2.339,4.551
		c16.311,28.3,34.665,54.436,67.936,65.128c1.492,0.479,3.058,3.302,3.203,5.099c0.462,5.715,0.98,11.231,1.492,17.231h83.912
		C194.061,316,192.893,301.466,193.608,286.802z"/>
	<path fill="#FFFFFF" stroke="#00D0EF" stroke-width="3" stroke-miterlimit="10" d="M288.861,275.792
		c0.031-2.671-0.113-6.826-1.711-7.832c-7.922-4.985-15.982-10.39-24.775-13.097c-4.207-1.297-10.145,3.013-16.117,5.072
		c-5.604-9.579-13.825-8.035-22.751-1.229c-0.323-0.731-0.645-1.474-0.968-2.206c1.412-2.189,2.824-4.384,4.235-6.576
		c-1.084,1.194-2.167,2.391-3.251,3.583c-6.942-6.924-13.883-13.848-20.825-20.772c0.978-0.384,1.956-0.767,2.934-1.151
		c-5.367-0.483-10.733-0.966-16.1-1.449c1.241,0.916,2.483,1.833,3.724,2.749c-7.205,6.273-14.411,12.545-21.537,18.75
		c7.652,4.458,17.538,9.904,27.028,15.972c2.355,1.504,4.781,5.052,4.882,7.701c0.705,18.53,1.439,36.689,2.024,55.689h82.943
		C289.299,313,288.648,294.146,288.861,275.792z"/>
	<path fill="#FFFFFF" stroke="#00D0EF" stroke-width="3" stroke-miterlimit="10" d="M149.848,250.718
		c22.402-0.288,40.571-18.81,40.388-41.173c-0.183-22.356-18.707-40.546-41.106-40.363c-22.331,0.183-40.808,18.935-40.468,41.071
		C109.004,232.628,127.707,251.003,149.848,250.718z"/>
	<path fill="#FFFFFF" stroke="#00D0EF" stroke-width="3" stroke-miterlimit="10" d="M248.427,250.695
		c22.478-0.411,40.712-19.036,40.366-41.23c-0.35-22.467-18.782-40.482-41.229-40.295c-22.361,0.186-40.482,18.715-40.262,41.167
		C207.521,232.735,226.238,251.104,248.427,250.695z"/>
	<path fill="#FFFFFF" stroke="#00D0EF" stroke-width="3" stroke-miterlimit="10" d="M346.572,250.727
		c22.368-0.045,40.574-18.393,40.563-40.876c-0.008-22.495-18.221-40.71-40.673-40.677c-22.466,0.033-40.688,18.327-40.618,40.783
		C305.912,232.419,324.244,250.771,346.572,250.727z"/>
	<path fill="#FFFFFF" stroke="#00D0EF" stroke-width="3" stroke-miterlimit="10" d="M360.642,253.665
		c8.646,3.687,17.788,8.101,27.304,11.474c7.123,2.527,12.908-0.701,16.167-7.35c3.457-7.061,1.811-13.565-4.57-18.019
		c-4.504-3.144-9.777-5.186-12.947-6.816C377.178,240.468,369.16,246.867,360.642,253.665z"/>
	<path fill="#FFFFFF" stroke="#00D0EF" stroke-width="3" stroke-miterlimit="10" d="M105.872,265.468
		c9.995-3.125,19.52-7.75,28.578-11.467c-9.06-7.139-17.168-13.527-26.312-20.732c-3.315,1.784-8.356,3.81-12.582,6.938
		c-5.972,4.419-7.167,10.826-4.13,17.482C94.166,263.695,99.53,267.451,105.872,265.468z"/>
</g>
</svg>
