<?xml version="1.0" encoding="utf-8"?>
<!-- Generator: Adobe Illustrator 16.0.0, SVG Export Plug-In . SVG Version: 6.00 Build 0)  -->
<!DOCTYPE svg PUBLIC "-//W3C//DTD SVG 1.1//EN" "http://www.w3.org/Graphics/SVG/1.1/DTD/svg11.dtd">
<svg version="1.1" id="Capa_1" xmlns="http://www.w3.org/2000/svg" xmlns:xlink="http://www.w3.org/1999/xlink" x="0px" y="0px"
	 width="500px" height="500px" viewBox="0 0 500 500" enable-background="new 0 0 500 500" xml:space="preserve">
<g>
	<path fill="#FFFFFF" stroke="#00D0EF" stroke-width="3" stroke-miterlimit="10" d="M124.42,126.075
		c4.381,1.302,8.786,2.527,13.139,3.917c26.824,8.572,42.636,34.995,37.638,62.831c-4.644,25.866-29.334,45.579-55.985,44.698
		c-26.888-0.888-50.251-22.18-52.828-48.146c-2.907-29.292,14.57-54.368,42.324-60.8c2.944-0.682,5.82-1.66,8.728-2.501
		C119.764,126.075,122.092,126.075,124.42,126.075z"/>
	<path fill="#FFFFFF" stroke="#00D0EF" stroke-width="3" stroke-miterlimit="10" d="M382.172,126.075
		c4.381,1.302,8.786,2.527,13.139,3.917c26.824,8.572,42.639,34.995,37.641,62.831c-4.646,25.866-29.334,45.579-55.985,44.698
		c-26.888-0.888-50.251-22.18-52.828-48.146c-2.905-29.292,14.57-54.368,42.324-60.8c2.944-0.682,5.82-1.66,8.729-2.501
		C377.516,126.075,379.844,126.075,382.172,126.075z"/>
	<path fill="#FFFFFF" stroke="#00D0EF" stroke-width="3" stroke-miterlimit="10" d="M321.043,210.334
		c-1.723,3.495-2.637,9.064-5.581,10.517c-5.542,2.734-6.925-3.707-9.25-7.155c-6.489-9.622-13.601-12.515-24.912-10.587
		c-4.018,0.685-5.817,2.197-5.209,6.292c0.177,1.192,0.298,2.482,0.03,3.631c-0.426,1.831-1.195,3.583-1.819,5.368
		c-1.731-0.753-3.897-1.08-5.128-2.328c-8.814-8.948-17.543-17.988-26.087-27.195c-5.353-5.768-5.088-10.915,0.703-16.399
		c7.942-7.522,16.009-14.92,24.192-22.18c1.289-1.144,3.582-1.916,5.191-1.631c0.85,0.15,1.885,3.046,1.691,4.558
		c-0.688,5.436,1.654,7.64,6.761,9.238c15.298,4.79,27.555,13.814,34.225,28.79C318.344,196.849,319.162,203.192,321.043,210.334z"
		/>
	<path fill="#FFFFFF" stroke="#00D0EF" stroke-width="3" stroke-miterlimit="10" d="M176.962,220.055
		c1.763-3.338,2.855-8.953,5.944-10.452c5.086-2.467,6.521,3.75,8.737,7.07c6.575,9.849,13.788,12.807,25.404,10.725
		c3.826-0.686,5.284-2.403,4.74-6.112c-0.117-0.796-0.227-1.656-0.049-2.419c0.523-2.235,1.193-4.436,1.806-6.65
		c2.147,1.131,4.731,1.825,6.367,3.466c8.144,8.17,16.088,16.542,24.004,24.935c6.585,6.982,6.472,11.643-0.435,18.112
		c-7.532,7.058-15.11,14.069-22.842,20.908c-1.481,1.311-3.765,1.713-5.679,2.531c-0.706-1.756-2.161-3.592-1.983-5.253
		c0.598-5.577-2.141-7.461-7.068-9.026c-15.275-4.861-27.427-13.955-33.95-29.001C179.603,233.457,178.833,227.335,176.962,220.055z
		"/>
	<g>
		<path fill="#FFFFFF" stroke="#00D0EF" stroke-width="3" stroke-miterlimit="10" d="M115.666,357.477
			c0.621-8.684,1.55-17.391,2.41-26.858c6.021,2.997,10.565,5.602,15.378,7.571c27.728,11.363,54.92,6.149,81.838-3.188
			c11.83-4.104,17.797-16.154,14.06-27.229c-3.541-10.494-15.213-16.045-27.057-13.002c-8.831,2.268-17.624,4.832-26.583,6.428
			c-27.466,4.892-43.241-8.047-43.775-35.454c-0.304-15.609-11.242-29.34-26.516-33.29c-14.834-3.835-31.07,2.483-38.795,15.79
			c-3.159,5.442-5.459,11.594-7.37,17.622C48.511,299.753,44.656,335,44.301,370h70.481
			C115.078,366,115.369,361.621,115.666,357.477z"/>
		<path fill="#FFFFFF" stroke="#00D0EF" stroke-width="3" stroke-miterlimit="10" d="M455.653,364.111
			c-1.216-36.957-5.274-73.557-18.554-108.424c-6.93-18.198-24.014-27.458-41.711-23.448c-17.551,3.975-28.461,19.864-27.265,39.306
			c0.194,3.158-0.171,6.609-1.295,9.539c-5.398,14.064-16.325,21.486-30.909,20.445c-13.37-0.954-26.581-4.502-39.785-7.27
			c-10.672-2.232-22.127,3.592-25.478,13.482c-3.421,10.095,1.728,22.057,11.707,26.374c4.551,1.969,9.378,3.362,14.166,4.71
			c28.383,7.982,56.23,9.424,82.563-7.024c0.543-0.339,1.484,0.05,2.572,0.05c1.242,12.735,2.648,25.146,3.908,38.146H456
			C455.857,368,455.714,365.979,455.653,364.111z"/>
	</g>
</g>
</svg>
