<?xml version="1.0" encoding="utf-8"?>
<!-- Generator: Adobe Illustrator 16.0.0, SVG Export Plug-In . SVG Version: 6.00 Build 0)  -->
<!DOCTYPE svg PUBLIC "-//W3C//DTD SVG 1.1//EN" "http://www.w3.org/Graphics/SVG/1.1/DTD/svg11.dtd">
<svg version="1.1" id="Capa_1" xmlns="http://www.w3.org/2000/svg" xmlns:xlink="http://www.w3.org/1999/xlink" x="0px" y="0px"
	 width="500px" height="500px" viewBox="0 0 500 500" enable-background="new 0 0 500 500" xml:space="preserve">
<g>
	<path fill="#FFFFFF" stroke="#00D0EF" stroke-width="3" stroke-miterlimit="10" d="M364.55,406.317
		c0.027-3.808-1.356-13.613-1.618-18.692c-19.112,0-37.403-0.359-55.632-1.172c-20.009-0.891-32.604-11.678-37.649-29.25
		c-0.805-2.805-0.66-1.844-1.557-4.842c-8.475,5.14-15.738,10.996-24.074,14.033c-8.351,3.043-9.691,11.603-9.677,19.442
		c0.025,14.075,0.006,31.161,0.016,46.161H364.39C364.441,424,364.499,413.545,364.55,406.317z"/>
	<path fill="#FFFFFF" stroke="#00D0EF" stroke-width="3" stroke-miterlimit="10" d="M333.672,232.147
		C319.994,262.297,307.085,293,293.54,325c22.864,0,48.258-3,69.604-3c-1.005-16-12.468-28.343-22.075-37.313
		c-6.858-6.401-14.806-11.396-3.128-20.741c10.978,13.672,24.071,25.053,32.327,40.174c9.514,17.421,1.263,28.192-18.313,28.218
		c-16.102,0.02-32.199,2.38-48.307,2.104c-12.633-0.217-19.683,2.812-19.739,14.957c-0.063,13.301,8.196,23.854,21.954,24.528
		c20.808,1.022,41.897,1.938,62.52-0.307c30.989-3.371,46.409-23.011,46.283-54.425c-0.146-36.482-31.649-74.246-70.226-86.689
		C340.133,231.117,335.606,232.595,333.672,232.147z"/>
	<path fill="#FFFFFF" stroke="#00D0EF" stroke-width="3" stroke-miterlimit="10" d="M247.855,353.225
		c12.352-7.947,23.148-21.267,30.586-33.813c14.848-25.037,21.703-51.867,34.438-78.129c5.585-11.517,2.292-20.519-8.602-26.366
		c-11.498-6.171-21.799-4.036-28.108,6.845c-5.675,9.785-10.464,20.098-15.378,30.306c-9.387,19.498-11.586,35.09-21.175,55.301
		c-2.571-1.637-5.307-2.949-5.178-3.354c7.845-24.717,8.925-45.355,17.279-70.913c-33.603,10.507-52.061,34.293-52.378,68.417
		c-0.097,10.363,1.368,20.886,3.341,31.099C206.579,352.802,230.596,364.327,247.855,353.225z"/>
	<path fill="#FFFFFF" stroke="#00D0EF" stroke-width="3" stroke-miterlimit="10" d="M299.798,219.538
		c36.562,0.456,65.938-28.43,66.015-64.912c0.076-35.603-28.434-64.826-63.924-65.522c-35.929-0.704-65.912,28.939-65.99,65.243
		C235.822,190.154,264.189,219.094,299.798,219.538z"/>
</g>
<g>
	<path fill="#FFFFFF" stroke="#00D0EF" stroke-width="3" stroke-miterlimit="10" d="M174.033,239.235l-11.481-37.568
		c10.448-5.386,18.462-13.324,24.041-23.813c3.629-6.823,5.771-14.04,6.435-21.671c0.662-7.627-0.062-14.894-2.172-21.795
		c-2.108-6.9-5.566-13.331-10.382-19.286c-4.817-5.955-10.632-10.744-17.45-14.37c-6.816-3.625-14.039-5.77-21.668-6.434
		c-7.63-0.665-14.897,0.062-21.794,2.173c-6.904,2.107-13.332,5.57-19.286,10.383c-5.956,4.817-10.743,10.627-14.372,17.45
		c-3.625,6.815-5.771,14.04-6.435,21.672c-0.66,7.623,0.06,14.893,2.174,21.791c2.108,6.895,5.57,13.328,10.382,19.285
		c4.817,5.955,10.632,10.744,17.448,14.369c10.489,5.579,21.575,7.679,33.252,6.302l11.521,37.499
		c0.752,2.733,2.412,4.777,4.99,6.148c2.526,1.344,5.158,1.593,7.896,0.758c2.741-0.838,4.778-2.517,6.123-5.046
		C174.598,244.556,174.857,241.942,174.033,239.235z M146.844,185.747c-9.6,2.932-18.813,2.051-27.632-2.64
		c-8.82-4.691-14.698-11.836-17.633-21.435c-2.934-9.609-2.057-18.819,2.631-27.634c4.691-8.82,11.839-14.699,21.444-17.633
		c9.6-2.932,18.815-2.063,27.634,2.63c8.819,4.691,14.692,11.844,17.631,21.444c2.936,9.605,2.057,18.818-2.634,27.638
		C163.597,176.933,156.449,182.807,146.844,185.747z"/>
	<path fill="#FFFFFF" stroke="#00D0EF" stroke-width="3" stroke-miterlimit="10" d="M159.713,146.542l-18.137-0.504l0.504-18.137
		c0.02-0.702-0.222-1.313-0.721-1.842c-0.497-0.524-1.098-0.798-1.799-0.818l-5.18-0.144c-0.703-0.02-1.317,0.221-1.844,0.717
		c-0.524,0.5-0.801,1.097-0.82,1.799l-0.504,18.137l-18.137-0.504c-0.7-0.019-1.314,0.226-1.842,0.722
		c-0.528,0.496-0.801,1.097-0.82,1.799l-0.144,5.175c-0.02,0.707,0.22,1.322,0.719,1.847c0.499,0.529,1.099,0.799,1.799,0.818
		l18.137,0.504l-0.504,18.137c-0.02,0.707,0.223,1.322,0.719,1.846c0.498,0.524,1.098,0.798,1.801,0.818l5.18,0.144
		c0.701,0.019,1.316-0.221,1.842-0.717c0.528-0.496,0.803-1.097,0.823-1.803l0.504-18.137l18.137,0.504
		c0.701,0.019,1.314-0.216,1.843-0.717c0.524-0.496,0.8-1.097,0.819-1.804l0.144-5.175c0.02-0.702-0.222-1.317-0.718-1.842
		C161.013,146.841,160.414,146.562,159.713,146.542z"/>
</g>
</svg>
