<?xml version="1.0" encoding="utf-8"?>
<!-- Generator: Adobe Illustrator 17.0.0, SVG Export Plug-In . SVG Version: 6.00 Build 0)  -->
<!DOCTYPE svg PUBLIC "-//W3C//DTD SVG 1.1//EN" "http://www.w3.org/Graphics/SVG/1.1/DTD/svg11.dtd">
<svg version="1.1" id="Capa_1" xmlns="http://www.w3.org/2000/svg" xmlns:xlink="http://www.w3.org/1999/xlink" x="0px" y="0px"
	 width="400px" height="400px" viewBox="0 0 400 400" enable-background="new 0 0 400 400" xml:space="preserve">
<g>
	<g>
		<polygon fill="#FFFFFF" points="206.66,231.711 387.833,149.71 201.894,67.7 22.625,147.797 		"/>
	</g>
	<g>
		<g>
			<rect x="26.279" y="144.935" fill="#FFFFFF" width="11.441" height="87.718"/>
			<path fill="#FFFFFF" d="M13.891,236.945c0-9.996,8.108-18.108,18.112-18.108c10.016,0,18.116,8.112,18.116,18.108
				c0,10.004-8.1,18.12-18.116,18.12C21.999,255.065,13.891,246.949,13.891,236.945z"/>
			<g>
				<path fill="#FFFFFF" d="M40.21,242.666c0,0,14.347,30.048,8.63,75.809H28.247v-80.093
					C28.247,238.382,40.219,245.053,40.21,242.666z"/>
				<path fill="#FFFFFF" d="M22.071,242.666c0,0-14.272,30.048-8.551,75.809h20.444v-80.093
					C33.963,238.382,22.067,245.053,22.071,242.666z"/>
			</g>
		</g>
	</g>
	<g>
		<path fill="#FFFFFF" d="M103.676,198.579c0,0.859,88.72,41.992,105.842,49.93c17.126-7.938,105.842-49.071,105.842-49.93v97.489
			c-28.588,30.381-84.955,35.294-102.988,36.086v0.146c0,0-1.037,0-2.854-0.047c-1.821,0.047-2.858,0.047-2.858,0.047v-0.146
			c-18.037-0.792-74.392-5.705-102.984-36.086V198.579z"/>
	</g>
</g>
</svg>
