<?xml version="1.0" encoding="utf-8"?>
<!-- Generator: Adobe Illustrator 16.0.0, SVG Export Plug-In . SVG Version: 6.00 Build 0)  -->
<!DOCTYPE svg PUBLIC "-//W3C//DTD SVG 1.1//EN" "http://www.w3.org/Graphics/SVG/1.1/DTD/svg11.dtd">
<svg version="1.1" id="Capa_1" xmlns="http://www.w3.org/2000/svg" xmlns:xlink="http://www.w3.org/1999/xlink" x="0px" y="0px"
	 width="1000px" height="1000px" viewBox="0 0 1000 1000" enable-background="new 0 0 1000 1000" xml:space="preserve">
<g>
	
		<rect x="147.809" y="147.809" transform="matrix(0.7044 0.7098 -0.7098 0.7044 502.7189 -207.1014)" fill="none" stroke="#004C63" stroke-width="10" stroke-miterlimit="10" width="704.382" height="704.382"/>
	
		<rect x="159.879" y="159.879" transform="matrix(0.7084 -0.7059 0.7059 0.7084 -207.1058 498.7451)" fill="none" stroke="#004C63" stroke-width="10" stroke-miterlimit="10" width="680.242" height="680.242"/>
	
		<rect x="171.947" y="171.947" transform="matrix(0.7068 -0.7074 0.7074 0.7068 -207.1067 500.317)" fill="none" stroke="#004C63" stroke-width="10" stroke-miterlimit="10" width="656.104" height="656.105"/>
	
		<rect x="184.014" y="184.014" transform="matrix(0.7051 -0.7091 0.7091 0.7051 -207.1038 502.0091)" fill="none" stroke="#004C63" stroke-width="10" stroke-miterlimit="10" width="631.972" height="631.972"/>
	
		<rect x="196.079" y="196.079" transform="matrix(0.7033 -0.7109 0.7109 0.7033 -207.0961 503.8356)" fill="none" stroke="#004C63" stroke-width="10" stroke-miterlimit="10" width="607.842" height="607.842"/>
	
		<rect x="208.142" y="208.142" transform="matrix(0.7013 -0.7129 0.7129 0.7013 -207.0828 505.8138)" fill="none" stroke="#004C63" stroke-width="10" stroke-miterlimit="10" width="583.717" height="583.717"/>
	
		<rect x="220.201" y="220.201" transform="matrix(0.6991 -0.715 0.715 0.6991 -207.0619 507.9613)" fill="none" stroke="#004C63" stroke-width="10" stroke-miterlimit="10" width="559.596" height="559.597"/>
	
		<rect x="232.259" y="232.259" transform="matrix(0.6967 -0.7173 0.7173 0.6967 -207.0316 510.3023)" fill="none" stroke="#004C63" stroke-width="10" stroke-miterlimit="10" width="535.481" height="535.481"/>
	
		<rect x="244.313" y="244.313" transform="matrix(0.6941 -0.7199 0.7199 0.6941 -206.9899 512.8652)" fill="none" stroke="#004C63" stroke-width="10" stroke-miterlimit="10" width="511.373" height="511.373"/>
	
		<rect x="256.364" y="256.364" transform="matrix(0.6913 -0.7226 0.7226 0.6913 -206.9329 515.6804)" fill="none" stroke="#004C63" stroke-width="10" stroke-miterlimit="10" width="487.272" height="487.272"/>
	
		<rect x="268.409" y="268.409" transform="matrix(0.6881 -0.7256 0.7256 0.6881 -206.8568 518.7887)" fill="none" stroke="#004C63" stroke-width="10" stroke-miterlimit="10" width="463.181" height="463.18"/>
	
		<rect x="280.451" y="280.451" transform="matrix(0.6845 -0.729 0.729 0.6845 -206.7567 522.2365)" fill="none" stroke="#004C63" stroke-width="10" stroke-miterlimit="10" width="439.098" height="439.097"/>
	
		<rect x="292.486" y="292.486" transform="matrix(0.6805 -0.7327 0.7327 0.6805 -206.6255 526.0853)" fill="none" stroke="#004C63" stroke-width="10" stroke-miterlimit="10" width="415.027" height="415.027"/>
	
		<rect x="304.515" y="304.515" transform="matrix(0.676 -0.7369 0.7369 0.676 -206.4528 530.4056)" fill="none" stroke="#004C63" stroke-width="10" stroke-miterlimit="10" width="390.97" height="390.97"/>
	
		<rect x="316.535" y="316.535" transform="matrix(0.6709 -0.7415 0.7415 0.6709 -206.2255 535.2911)" fill="none" stroke="#004C63" stroke-width="10" stroke-miterlimit="10" width="366.93" height="366.93"/>
	
		<rect x="328.545" y="328.545" transform="matrix(0.6651 -0.7468 0.7468 0.6651 -205.9249 540.8594)" fill="none" stroke="#004C63" stroke-width="10" stroke-miterlimit="10" width="342.91" height="342.91"/>
	
		<rect x="340.543" y="340.543" transform="matrix(0.6583 -0.7528 0.7528 0.6583 -205.5254 547.2643)" fill="none" stroke="#004C63" stroke-width="10" stroke-miterlimit="10" width="318.914" height="318.914"/>
	
		<rect x="352.526" y="352.526" transform="matrix(0.6503 -0.7597 0.7597 0.6503 -204.9875 554.7037)" fill="none" stroke="#004C63" stroke-width="10" stroke-miterlimit="10" width="294.948" height="294.948"/>
	
		<rect x="364.489" y="364.489" transform="matrix(0.6408 -0.7677 0.7677 0.6408 -204.2543 563.4528)" fill="none" stroke="#004C63" stroke-width="10" stroke-miterlimit="10" width="271.021" height="271.022"/>
	
		<rect x="376.428" y="376.428" transform="matrix(0.6294 -0.7771 0.7771 0.6294 -203.2368 573.8789)" fill="none" stroke="#004C63" stroke-width="10" stroke-miterlimit="10" width="247.144" height="247.144"/>
	
		<rect x="388.333" y="388.333" transform="matrix(0.6153 -0.7883 0.7883 0.6153 -201.795 586.5088)" fill="none" stroke="#004C63" stroke-width="10" stroke-miterlimit="10" width="223.334" height="223.334"/>
	
		<rect x="400.194" y="400.194" transform="matrix(0.5976 -0.8018 0.8018 0.5976 -199.6957 602.11)" fill="none" stroke="#004C63" stroke-width="10" stroke-miterlimit="10" width="199.612" height="199.613"/>
	
		<rect x="411.992" y="411.992" transform="matrix(0.5747 -0.8184 0.8184 0.5747 -196.5325 621.8304)" fill="none" stroke="#004C63" stroke-width="10" stroke-miterlimit="10" width="176.017" height="176.016"/>
	
		<rect x="423.698" y="423.698" transform="matrix(0.5441 -0.839 0.839 0.5441 -191.5562 647.4789)" fill="none" stroke="#004C63" stroke-width="10" stroke-miterlimit="10" width="152.604" height="152.604"/>
	
		<rect x="435.262" y="435.262" transform="matrix(0.5013 -0.8653 0.8653 0.5013 -183.2766 682.0244)" fill="none" stroke="#004C63" stroke-width="10" stroke-miterlimit="10" width="129.475" height="129.475"/>
	
		<rect x="446.593" y="446.593" transform="matrix(0.4379 -0.899 0.899 0.4379 -168.4558 730.5788)" fill="none" stroke="#004C63" stroke-width="10" stroke-miterlimit="10" width="106.814" height="106.814"/>
	
		<rect x="457.502" y="457.502" transform="matrix(0.337 -0.9415 0.9415 0.337 -139.2472 802.2631)" fill="none" stroke="#004C63" stroke-width="10" stroke-miterlimit="10" width="84.997" height="84.997"/>
	
		<rect x="467.561" y="467.561" transform="matrix(0.1621 -0.9868 0.9868 0.1621 -74.4187 912.363)" fill="none" stroke="#004C63" stroke-width="10" stroke-miterlimit="10" width="64.877" height="64.878"/>
	
		<rect x="475.692" y="475.692" transform="matrix(-0.1566 -0.9877 0.9877 -0.1566 84.4826 1072.1405)" fill="none" stroke="#004C63" stroke-width="10" stroke-miterlimit="10" width="48.615" height="48.615"/>
	
		<rect x="479.462" y="479.461" transform="matrix(-0.6267 -0.7793 0.7793 -0.6267 423.7036 1202.9781)" fill="none" stroke="#004C63" stroke-width="10" stroke-miterlimit="10" width="41.077" height="41.077"/>
	
		<rect x="476.65" y="476.65" transform="matrix(-0.9394 -0.3427 0.3427 -0.9394 798.3541 1141.0813)" fill="none" stroke="#004C63" stroke-width="10" stroke-miterlimit="10" width="46.7" height="46.7"/>
	<rect x="469" y="469" fill="none" stroke="#004C63" stroke-width="10" stroke-miterlimit="10" width="62" height="62"/>
</g>
</svg>
