<?xml version="1.0" encoding="utf-8"?>
<!-- Generator: Adobe Illustrator 16.0.0, SVG Export Plug-In . SVG Version: 6.00 Build 0)  -->
<!DOCTYPE svg PUBLIC "-//W3C//DTD SVG 1.1//EN" "http://www.w3.org/Graphics/SVG/1.1/DTD/svg11.dtd">
<svg version="1.1" id="Capa_1" xmlns="http://www.w3.org/2000/svg" xmlns:xlink="http://www.w3.org/1999/xlink" x="0px" y="0px"
	 width="296.485px" height="285.697px" viewBox="0 0 296.485 285.697" enable-background="new 0 0 296.485 285.697"
	 xml:space="preserve">
<path fill="#F49B00" d="M66.387,203.819c0,0,71.277,88.416,151.908,35.668c90.106-58.946,42.381-143.686,42.381-143.686
	s31.257,91.052-54.706,140.167C135.74,276.093,66.387,203.819,66.387,203.819"/>
<polygon points="83.04,132.859 82.8,105.764 93.673,105.764 93.673,150.221 83.821,150.221 66.818,123.427 67.058,150.221 
	56.185,150.221 56.185,105.764 65.978,105.764 "/>
<path d="M99.862,128.474c0-14.539,11.173-23.551,23.43-23.551c13.697,0,23.49,10.694,23.49,23.071c0,12.375-9.733,23.07-23.55,23.07
	c-13.998,0-23.37-11.115-23.37-22.53V128.474z M111.216,127.933c0,6.789,4.626,13.157,12.256,13.157
	c8.05,0,11.956-7.329,11.956-13.036c0-5.768-3.906-13.158-12.076-13.158c-7.87,0-12.136,6.729-12.136,12.977V127.933z"/>
<polygon points="147.144,105.764 158.8,105.764 167.81,136.945 176.882,105.764 188.597,105.764 173.697,150.222 161.982,150.222 
	"/>
<path d="M195.808,150.221h-12.316l17.603-44.458h9.793l17.063,44.458h-12.437l-2.103-6.426h-15.562L195.808,150.221z
	 M205.479,119.281l-4.806,15.501h9.793L205.479,119.281z"/>
<path fill="#F49B00" d="M0,138.874c0,0,105.829-89.962,210.126-83.447c140.084,8.752,67.626,103.448,67.626,103.448
	s51.93-98.759-74.269-96.259C83.164,65,0,138.874,0,138.874"/>
<path fill="#1D1D1C" d="M56.443,189.063c0,0-51.951-94.293,28.808-149.315c88.984-60.627,150.815,18.9,150.815,18.9
	S156.854-11.06,80.989,52.55C19.009,104.518,56.443,189.063,56.443,189.063"/>
<path fill="#1D1D1C" d="M145.144,285.697c0,0,104.748-90.963,111.931-193.599c9.649-137.852-95.474-80.09-95.474-80.09
	s106.515-37.181,87.344,85.589C230.667,214.649,145.144,285.697,145.144,285.697"/>
<path d="M54.454,172.037l5.095-12.96h1.385l4.968,12.96h-1.26l-1.494-4.068h-5.904l-1.529,4.068H54.454z M57.658,166.924h5.076
	l-2.538-6.804L57.658,166.924z"/>
<path d="M74.686,159.077h1.08v12.96h-1.08v-1.638H74.65c-0.156,0.312-0.358,0.585-0.603,0.819c-0.246,0.233-0.516,0.43-0.81,0.585
	s-0.597,0.275-0.909,0.359s-0.619,0.126-0.918,0.126c-0.756,0-1.398-0.126-1.926-0.378c-0.528-0.252-0.963-0.596-1.305-1.035
	c-0.342-0.438-0.592-0.957-0.747-1.557c-0.156-0.6-0.234-1.242-0.234-1.926c0-0.648,0.084-1.272,0.252-1.872
	c0.168-0.601,0.423-1.125,0.765-1.575c0.342-0.45,0.774-0.81,1.296-1.08c0.522-0.27,1.137-0.405,1.845-0.405
	c0.66,0,1.293,0.148,1.899,0.441c0.606,0.294,1.082,0.729,1.431,1.305V159.077z M74.686,167.338c0-0.527-0.072-1.028-0.216-1.503
	c-0.144-0.474-0.351-0.888-0.621-1.241c-0.27-0.354-0.6-0.637-0.99-0.847s-0.831-0.314-1.323-0.314c-0.564,0-1.05,0.11-1.458,0.333
	c-0.409,0.222-0.745,0.524-1.008,0.909c-0.264,0.384-0.456,0.83-0.576,1.341c-0.12,0.511-0.168,1.059-0.144,1.646
	c0,0.588,0.081,1.107,0.243,1.558c0.162,0.449,0.387,0.831,0.675,1.143c0.288,0.313,0.624,0.549,1.008,0.711
	c0.384,0.162,0.804,0.243,1.26,0.243c0.504,0,0.954-0.103,1.35-0.306c0.396-0.204,0.726-0.483,0.989-0.837
	c0.265-0.354,0.466-0.774,0.604-1.261C74.617,168.428,74.686,167.903,74.686,167.338"/>
<path d="M84.424,172.037h-1.08v-9.323h1.08v1.403h0.035c0.277-0.54,0.672-0.95,1.189-1.232c0.515-0.282,1.08-0.423,1.692-0.423
	c0.432,0,0.798,0.048,1.098,0.143c0.299,0.097,0.554,0.226,0.764,0.388s0.384,0.352,0.523,0.566c0.137,0.216,0.255,0.451,0.35,0.703
	c0.313-0.613,0.73-1.065,1.251-1.359c0.523-0.294,1.119-0.44,1.791-0.44c0.636,0,1.144,0.104,1.522,0.313
	c0.378,0.211,0.669,0.487,0.873,0.828c0.203,0.343,0.339,0.736,0.404,1.18c0.067,0.443,0.1,0.9,0.1,1.367v5.887h-1.08v-6.443
	c0-0.672-0.142-1.201-0.423-1.584c-0.282-0.384-0.808-0.576-1.575-0.576c-0.397,0-0.778,0.087-1.144,0.261
	c-0.366,0.174-0.686,0.441-0.963,0.801c-0.12,0.156-0.219,0.34-0.297,0.55s-0.14,0.429-0.188,0.656
	c-0.049,0.229-0.081,0.456-0.1,0.685c-0.017,0.228-0.026,0.438-0.026,0.63v5.021h-1.08v-6.443c0-0.672-0.142-1.201-0.423-1.584
	c-0.282-0.384-0.808-0.576-1.575-0.576c-0.397,0-0.778,0.087-1.144,0.261c-0.366,0.174-0.686,0.441-0.963,0.801
	c-0.12,0.156-0.218,0.34-0.297,0.55c-0.078,0.21-0.14,0.429-0.188,0.656c-0.049,0.229-0.081,0.456-0.1,0.685
	c-0.017,0.228-0.026,0.438-0.026,0.63V172.037z"/>
<path d="M102.767,166.6c0.204-0.022,0.447-0.06,0.728-0.106c0.282-0.048,0.514-0.115,0.694-0.199
	c0.179-0.084,0.291-0.224,0.333-0.423c0.042-0.198,0.063-0.38,0.063-0.548c0-0.552-0.178-1.005-0.531-1.36
	c-0.355-0.353-0.951-0.531-1.791-0.531c-0.372,0-0.714,0.033-1.027,0.101c-0.311,0.064-0.585,0.179-0.818,0.341
	c-0.234,0.163-0.427,0.378-0.576,0.648c-0.151,0.27-0.249,0.608-0.297,1.017h-1.099c0.036-0.551,0.162-1.023,0.378-1.413
	c0.216-0.389,0.495-0.708,0.837-0.954c0.343-0.246,0.738-0.426,1.189-0.54c0.45-0.114,0.926-0.171,1.43-0.171
	c0.468,0,0.909,0.051,1.324,0.154c0.414,0.101,0.774,0.263,1.08,0.484c0.305,0.224,0.546,0.521,0.719,0.893
	c0.174,0.372,0.261,0.828,0.261,1.367v5.075c0,0.422,0.075,0.688,0.226,0.803c0.149,0.112,0.453,0.087,0.909-0.081V172
	c-0.084,0.025-0.207,0.06-0.369,0.108c-0.162,0.048-0.322,0.072-0.478,0.072c-0.168,0-0.33-0.019-0.485-0.055
	c-0.181-0.024-0.324-0.081-0.433-0.171c-0.107-0.089-0.195-0.198-0.261-0.324s-0.111-0.263-0.134-0.414
	c-0.025-0.148-0.036-0.308-0.036-0.476c-0.456,0.503-0.979,0.887-1.567,1.15c-0.588,0.265-1.223,0.396-1.907,0.396
	c-0.408,0-0.802-0.053-1.18-0.162c-0.378-0.108-0.711-0.276-0.999-0.504c-0.288-0.227-0.515-0.506-0.683-0.836
	c-0.168-0.331-0.252-0.723-0.252-1.18c0-1.584,1.086-2.521,3.257-2.809L102.767,166.6z M104.584,167.14
	c-0.457,0.192-0.918,0.318-1.387,0.378c-0.467,0.061-0.935,0.108-1.403,0.145c-0.828,0.06-1.474,0.247-1.936,0.558
	c-0.461,0.313-0.692,0.786-0.692,1.422c0,0.288,0.057,0.537,0.171,0.747c0.113,0.21,0.264,0.386,0.449,0.522
	c0.187,0.138,0.402,0.241,0.649,0.306c0.246,0.067,0.495,0.1,0.747,0.1c0.431,0,0.851-0.055,1.259-0.161
	c0.409-0.109,0.772-0.274,1.089-0.495c0.319-0.223,0.574-0.504,0.766-0.847c0.191-0.343,0.288-0.747,0.288-1.216V167.14z"/>
<path d="M108.598,159.078h1.187v1.602h-1.187V159.078z M108.652,162.713h1.08v9.324h-1.08V162.713z"/>
<path d="M116.193,172.289c-0.6-0.012-1.161-0.12-1.683-0.323c-0.522-0.204-0.978-0.511-1.368-0.918
	c-0.39-0.408-0.699-0.918-0.927-1.53s-0.342-1.326-0.342-2.143c0-0.685,0.091-1.322,0.27-1.917c0.18-0.594,0.45-1.112,0.81-1.558
	c0.36-0.443,0.81-0.794,1.35-1.052s1.17-0.387,1.89-0.387c0.731,0,1.368,0.129,1.908,0.387s0.99,0.605,1.35,1.044
	c0.36,0.438,0.627,0.957,0.802,1.557c0.172,0.601,0.26,1.241,0.26,1.926c0,0.744-0.102,1.416-0.306,2.017
	c-0.204,0.6-0.494,1.116-0.873,1.547c-0.378,0.433-0.834,0.766-1.368,0.999C117.432,172.172,116.841,172.289,116.193,172.289
	 M119.361,167.375c0-0.552-0.061-1.067-0.18-1.548c-0.12-0.479-0.306-0.896-0.558-1.251c-0.252-0.354-0.575-0.633-0.972-0.837
	c-0.395-0.204-0.882-0.306-1.458-0.306c-0.564,0-1.047,0.11-1.449,0.333c-0.403,0.222-0.729,0.516-0.981,0.881
	c-0.252,0.367-0.438,0.787-0.558,1.261c-0.12,0.475-0.18,0.963-0.18,1.467c0,0.576,0.069,1.106,0.207,1.594
	c0.138,0.485,0.339,0.902,0.604,1.251c0.263,0.348,0.593,0.618,0.989,0.81c0.396,0.192,0.852,0.287,1.368,0.287
	c0.564,0,1.047-0.11,1.449-0.333c0.402-0.221,0.729-0.518,0.981-0.89s0.438-0.792,0.558-1.261
	C119.3,168.365,119.361,167.879,119.361,167.375"/>
<path d="M123.627,172.037h-1.08v-9.323h1.08v1.746h0.036c0.3-0.744,0.687-1.264,1.161-1.558c0.474-0.294,1.101-0.44,1.881-0.44v1.17
	c-0.611-0.013-1.116,0.084-1.512,0.288c-0.396,0.203-0.711,0.479-0.945,0.827c-0.233,0.349-0.395,0.76-0.485,1.232
	c-0.091,0.475-0.136,0.97-0.136,1.486V172.037z"/>
<path d="M132.771,166.6c0.204-0.022,0.447-0.06,0.728-0.106c0.282-0.048,0.514-0.115,0.694-0.199
	c0.179-0.084,0.291-0.224,0.333-0.423c0.042-0.198,0.063-0.38,0.063-0.548c0-0.552-0.178-1.005-0.531-1.36
	c-0.355-0.353-0.951-0.531-1.791-0.531c-0.372,0-0.714,0.033-1.027,0.101c-0.311,0.064-0.585,0.179-0.818,0.341
	c-0.234,0.163-0.427,0.378-0.576,0.648c-0.151,0.27-0.249,0.608-0.297,1.017h-1.099c0.036-0.551,0.162-1.023,0.378-1.413
	c0.216-0.389,0.495-0.708,0.837-0.954c0.343-0.246,0.738-0.426,1.189-0.54c0.45-0.114,0.926-0.171,1.43-0.171
	c0.468,0,0.909,0.051,1.324,0.154c0.414,0.101,0.774,0.263,1.08,0.484c0.305,0.224,0.546,0.521,0.719,0.893
	c0.174,0.372,0.261,0.828,0.261,1.367v5.075c0,0.422,0.075,0.688,0.226,0.803c0.149,0.112,0.453,0.087,0.909-0.081V172
	c-0.084,0.025-0.207,0.06-0.369,0.108c-0.162,0.048-0.322,0.072-0.478,0.072c-0.168,0-0.33-0.019-0.485-0.055
	c-0.181-0.024-0.324-0.081-0.433-0.171c-0.107-0.089-0.195-0.198-0.261-0.324s-0.111-0.263-0.134-0.414
	c-0.025-0.148-0.036-0.308-0.036-0.476c-0.456,0.503-0.979,0.887-1.567,1.15c-0.588,0.265-1.223,0.396-1.907,0.396
	c-0.408,0-0.802-0.053-1.18-0.162c-0.378-0.108-0.711-0.276-0.999-0.504c-0.288-0.227-0.515-0.506-0.683-0.836
	c-0.168-0.331-0.252-0.723-0.252-1.18c0-1.584,1.086-2.521,3.257-2.809L132.771,166.6z M134.589,167.14
	c-0.457,0.192-0.918,0.318-1.387,0.378c-0.467,0.061-0.935,0.108-1.403,0.145c-0.828,0.06-1.474,0.247-1.936,0.558
	c-0.461,0.313-0.692,0.786-0.692,1.422c0,0.288,0.057,0.537,0.171,0.747c0.113,0.21,0.264,0.386,0.449,0.522
	c0.187,0.138,0.402,0.241,0.649,0.306c0.246,0.067,0.495,0.1,0.747,0.1c0.431,0,0.851-0.055,1.259-0.161
	c0.409-0.109,0.772-0.274,1.089-0.495c0.319-0.223,0.574-0.504,0.766-0.847c0.191-0.343,0.288-0.747,0.288-1.216V167.14z"/>
<path d="M144.58,172.037h-1.08v-9.323h1.08v1.296c0.432-0.456,0.879-0.828,1.341-1.117c0.462-0.288,1.017-0.431,1.665-0.431
	c0.576,0,1.11,0.098,1.603,0.297c0.491,0.197,0.905,0.543,1.241,1.035c0.229,0.336,0.363,0.681,0.405,1.034
	c0.042,0.354,0.063,0.724,0.063,1.106v6.103h-1.08v-6.084c0-0.84-0.187-1.47-0.559-1.891c-0.372-0.42-0.99-0.629-1.854-0.629
	c-0.336,0-0.642,0.051-0.918,0.153c-0.276,0.101-0.525,0.236-0.747,0.404c-0.223,0.168-0.411,0.359-0.567,0.575
	c-0.157,0.217-0.277,0.445-0.36,0.686c-0.108,0.3-0.174,0.588-0.198,0.863c-0.024,0.276-0.036,0.575-0.036,0.9V172.037z"/>
<path d="M157.792,166.6c0.204-0.022,0.447-0.06,0.729-0.106c0.282-0.048,0.514-0.115,0.694-0.199
	c0.179-0.084,0.29-0.224,0.333-0.423c0.042-0.198,0.063-0.38,0.063-0.548c0-0.552-0.178-1.005-0.531-1.36
	c-0.354-0.353-0.951-0.531-1.791-0.531c-0.372,0-0.714,0.033-1.026,0.101c-0.312,0.064-0.585,0.179-0.818,0.341
	c-0.234,0.163-0.427,0.378-0.576,0.648c-0.15,0.27-0.249,0.608-0.297,1.017h-1.099c0.036-0.551,0.162-1.023,0.378-1.413
	c0.216-0.389,0.495-0.708,0.837-0.954c0.343-0.246,0.738-0.426,1.188-0.54s0.927-0.171,1.431-0.171c0.468,0,0.909,0.051,1.323,0.154
	c0.414,0.101,0.774,0.263,1.08,0.484c0.306,0.224,0.546,0.521,0.72,0.893s0.261,0.828,0.261,1.367v5.075
	c0,0.422,0.075,0.688,0.226,0.803c0.149,0.112,0.453,0.087,0.909-0.081V172c-0.084,0.025-0.207,0.06-0.369,0.108
	c-0.162,0.048-0.321,0.072-0.478,0.072c-0.168,0-0.33-0.019-0.485-0.055c-0.181-0.024-0.324-0.081-0.433-0.171
	c-0.107-0.089-0.195-0.198-0.261-0.324c-0.066-0.126-0.111-0.263-0.135-0.414c-0.024-0.148-0.036-0.308-0.036-0.476
	c-0.455,0.503-0.979,0.887-1.566,1.15c-0.588,0.265-1.223,0.396-1.907,0.396c-0.408,0-0.802-0.053-1.18-0.162
	c-0.378-0.108-0.711-0.276-0.999-0.504c-0.288-0.227-0.516-0.506-0.684-0.836c-0.168-0.331-0.252-0.723-0.252-1.18
	c0-1.584,1.086-2.521,3.258-2.809L157.792,166.6z M159.61,167.14c-0.457,0.192-0.918,0.318-1.387,0.378
	c-0.467,0.061-0.936,0.108-1.403,0.145c-0.828,0.06-1.474,0.247-1.936,0.558c-0.461,0.313-0.692,0.786-0.692,1.422
	c0,0.288,0.057,0.537,0.171,0.747c0.113,0.21,0.264,0.386,0.449,0.522c0.187,0.138,0.402,0.241,0.648,0.306
	c0.246,0.067,0.495,0.1,0.747,0.1c0.432,0,0.852-0.055,1.26-0.161c0.408-0.109,0.771-0.274,1.089-0.495
	c0.318-0.223,0.573-0.504,0.766-0.847c0.191-0.343,0.288-0.747,0.288-1.216V167.14z"/>
<path d="M166.792,172.073c-0.133,0.023-0.307,0.065-0.522,0.127c-0.216,0.06-0.456,0.09-0.72,0.09c-0.54,0-0.951-0.136-1.233-0.405
	c-0.282-0.271-0.423-0.753-0.423-1.45v-6.821h-1.313v-0.899h1.313v-2.592h1.08v2.592h1.746v0.899h-1.746v6.391
	c0,0.228,0.006,0.425,0.019,0.593c0.012,0.168,0.047,0.307,0.107,0.415c0.06,0.108,0.153,0.186,0.279,0.234
	c0.126,0.048,0.303,0.07,0.531,0.07c0.144,0,0.29-0.012,0.44-0.035s0.297-0.055,0.441-0.091V172.073z"/>
<path d="M174.838,162.712h1.08v9.324h-1.08v-1.296c-0.145,0.168-0.307,0.342-0.486,0.522c-0.18,0.179-0.387,0.346-0.621,0.495
	c-0.233,0.149-0.507,0.275-0.818,0.379c-0.313,0.101-0.673,0.151-1.08,0.151c-0.624,0-1.146-0.087-1.566-0.261
	c-0.42-0.173-0.759-0.417-1.017-0.729c-0.259-0.313-0.444-0.676-0.559-1.09s-0.171-0.866-0.171-1.358v-6.139h1.08v6.12
	c0,0.805,0.186,1.419,0.558,1.846c0.372,0.426,0.984,0.639,1.836,0.639c0.444,0,0.844-0.087,1.197-0.261
	c0.354-0.175,0.651-0.417,0.892-0.729c0.239-0.312,0.426-0.684,0.558-1.116c0.132-0.432,0.198-0.905,0.198-1.422V162.712z"/>
<path d="M179.157,169.121c0.168,0.805,0.471,1.371,0.909,1.701c0.438,0.33,1.064,0.494,1.881,0.494c0.396,0,0.738-0.047,1.026-0.143
	c0.287-0.097,0.524-0.226,0.711-0.388c0.186-0.162,0.326-0.345,0.423-0.549c0.096-0.204,0.144-0.42,0.144-0.647
	c0-0.456-0.146-0.795-0.44-1.018c-0.294-0.222-0.663-0.396-1.107-0.521c-0.443-0.126-0.924-0.235-1.44-0.325
	c-0.516-0.089-0.995-0.224-1.439-0.404c-0.444-0.18-0.813-0.438-1.106-0.773c-0.295-0.336-0.441-0.811-0.441-1.422
	c0-0.78,0.285-1.42,0.855-1.917c0.569-0.498,1.377-0.747,2.421-0.747c1.008,0,1.827,0.224,2.457,0.675
	c0.629,0.45,1.011,1.203,1.143,2.258h-1.099c-0.096-0.719-0.368-1.226-0.818-1.521c-0.45-0.294-1.017-0.44-1.701-0.44
	c-0.684,0-1.206,0.146-1.565,0.44c-0.36,0.295-0.54,0.682-0.54,1.161c0,0.42,0.146,0.741,0.44,0.963
	c0.294,0.223,0.663,0.402,1.107,0.54c0.443,0.139,0.924,0.262,1.439,0.369c0.517,0.108,0.996,0.262,1.44,0.459
	c0.443,0.197,0.813,0.465,1.107,0.802c0.294,0.336,0.44,0.804,0.44,1.403c0,0.444-0.096,0.837-0.288,1.18
	c-0.191,0.342-0.456,0.627-0.792,0.854c-0.336,0.229-0.735,0.4-1.197,0.514c-0.462,0.114-0.969,0.171-1.521,0.171
	c-0.553,0-1.041-0.08-1.468-0.242c-0.426-0.162-0.788-0.388-1.088-0.676c-0.301-0.287-0.534-0.624-0.703-1.008
	c-0.168-0.385-0.264-0.798-0.287-1.242H179.157z"/>
<path d="M193.161,169.121c0.168,0.805,0.471,1.371,0.909,1.701c0.438,0.33,1.064,0.494,1.881,0.494c0.396,0,0.738-0.047,1.026-0.143
	c0.287-0.097,0.524-0.226,0.711-0.388c0.186-0.162,0.326-0.345,0.423-0.549c0.096-0.204,0.144-0.42,0.144-0.647
	c0-0.456-0.146-0.795-0.44-1.018c-0.294-0.222-0.663-0.396-1.107-0.521c-0.443-0.126-0.924-0.235-1.44-0.325
	c-0.516-0.089-0.995-0.224-1.439-0.404c-0.444-0.18-0.813-0.438-1.106-0.773c-0.295-0.336-0.441-0.811-0.441-1.422
	c0-0.78,0.285-1.42,0.855-1.917c0.569-0.498,1.377-0.747,2.421-0.747c1.008,0,1.827,0.224,2.457,0.675
	c0.629,0.45,1.011,1.203,1.143,2.258h-1.099c-0.096-0.719-0.368-1.226-0.818-1.521c-0.45-0.294-1.017-0.44-1.701-0.44
	c-0.684,0-1.206,0.146-1.565,0.44c-0.36,0.295-0.54,0.682-0.54,1.161c0,0.42,0.146,0.741,0.44,0.963
	c0.294,0.223,0.663,0.402,1.107,0.54c0.443,0.139,0.924,0.262,1.439,0.369c0.517,0.108,0.996,0.262,1.44,0.459
	c0.443,0.197,0.813,0.465,1.107,0.802c0.294,0.336,0.44,0.804,0.44,1.403c0,0.444-0.096,0.837-0.288,1.18
	c-0.191,0.342-0.456,0.627-0.792,0.854c-0.336,0.229-0.735,0.4-1.197,0.514c-0.462,0.114-0.969,0.171-1.521,0.171
	c-0.553,0-1.041-0.08-1.468-0.242c-0.426-0.162-0.788-0.388-1.088-0.676c-0.301-0.287-0.534-0.624-0.703-1.008
	c-0.168-0.385-0.264-0.798-0.287-1.242H193.161z"/>
<path d="M207.85,162.712h1.08v9.324h-1.08v-1.296c-0.146,0.168-0.307,0.342-0.486,0.522c-0.18,0.179-0.387,0.346-0.621,0.495
	c-0.233,0.149-0.507,0.275-0.818,0.379c-0.313,0.101-0.673,0.151-1.08,0.151c-0.624,0-1.146-0.087-1.566-0.261
	c-0.42-0.173-0.759-0.417-1.017-0.729c-0.259-0.313-0.444-0.676-0.559-1.09s-0.171-0.866-0.171-1.358v-6.139h1.08v6.12
	c0,0.805,0.186,1.419,0.558,1.846c0.372,0.426,0.984,0.639,1.836,0.639c0.444,0,0.844-0.087,1.197-0.261
	c0.354-0.175,0.651-0.417,0.892-0.729c0.239-0.312,0.426-0.684,0.558-1.116c0.132-0.432,0.198-0.905,0.198-1.422V162.712z"/>
<path d="M212.477,172.037h-1.08v-9.323h1.08v1.403h0.035c0.277-0.54,0.672-0.95,1.188-1.232c0.516-0.282,1.08-0.423,1.692-0.423
	c0.432,0,0.798,0.048,1.098,0.143c0.3,0.097,0.555,0.226,0.765,0.388s0.384,0.352,0.522,0.566c0.138,0.216,0.255,0.451,0.351,0.703
	c0.313-0.613,0.729-1.065,1.251-1.359c0.522-0.294,1.119-0.44,1.791-0.44c0.636,0,1.144,0.104,1.521,0.313
	c0.378,0.211,0.669,0.487,0.873,0.828c0.203,0.343,0.339,0.736,0.404,1.18c0.066,0.443,0.1,0.9,0.1,1.367v5.887h-1.08v-6.443
	c0-0.672-0.142-1.201-0.423-1.584c-0.282-0.384-0.808-0.576-1.575-0.576c-0.396,0-0.777,0.087-1.144,0.261s-0.687,0.441-0.963,0.801
	c-0.12,0.156-0.219,0.34-0.297,0.55s-0.141,0.429-0.188,0.656c-0.049,0.229-0.081,0.456-0.1,0.685
	c-0.018,0.228-0.026,0.438-0.026,0.63v5.021h-1.08v-6.443c0-0.672-0.142-1.201-0.423-1.584c-0.282-0.384-0.808-0.576-1.575-0.576
	c-0.396,0-0.777,0.087-1.144,0.261s-0.687,0.441-0.963,0.801c-0.12,0.156-0.219,0.34-0.297,0.55s-0.141,0.429-0.188,0.656
	c-0.049,0.229-0.081,0.456-0.1,0.685c-0.018,0.228-0.026,0.438-0.026,0.63V172.037z"/>
</svg>
