<?xml version="1.0" encoding="utf-8"?>
<!-- Generator: Adobe Illustrator 17.1.0, SVG Export Plug-In . SVG Version: 6.00 Build 0)  -->
<!DOCTYPE svg PUBLIC "-//W3C//DTD SVG 1.1//EN" "http://www.w3.org/Graphics/SVG/1.1/DTD/svg11.dtd">
<svg version="1.1" id="Capa_1" xmlns="http://www.w3.org/2000/svg" xmlns:xlink="http://www.w3.org/1999/xlink" x="0px" y="0px"
	 viewBox="23.9 23.9 759.7 752.2" enable-background="new 23.9 23.9 759.7 752.2" xml:space="preserve">
<g>
	<g>
		
			<polygon opacity="0.7" fill="#9B0025" stroke="#00A99D" stroke-width="17" stroke-miterlimit="10" enable-background="new    " points="
			515.7,633.3 399.8,566.6 399.4,432.8 515,365.9 630.8,432.6 631.2,566.3 		"/>
		
			<text transform="matrix(-0.5105 0.8599 -0.8599 -0.5105 592.3113 473.8991)" fill="#FFFFFF" font-family="'Telegrafico'" font-size="33.5527">Bloque</text>
		
			<text transform="matrix(-0.5105 0.8599 -0.8599 -0.5105 564.2234 442.3366)" fill="#FFFFFF" font-family="'Telegrafico'" font-size="33.5527">Electivo</text>
	</g>
	
		<polygon opacity="0.7" fill="#0071BC" stroke="#00A99D" stroke-width="17" stroke-miterlimit="10" enable-background="new    " points="
		399.7,432.7 284.5,366.3 284.1,233.3 399,166.7 514.3,233.1 514.6,366 	"/>
	<text transform="matrix(1 0 0 1 339.1143 238.9522)" fill="#FFFFFF" font-family="'Telegrafico'" font-size="33.552">Bloque</text>
	<text transform="matrix(1 0 0 1 294.8837 279.214)" fill="#FFFFFF" font-family="'Telegrafico'" font-size="33.552">Profesional</text>
	<g>
		
			<polygon opacity="0.7" fill="#F7931E" stroke="#00A99D" stroke-width="17" stroke-miterlimit="10" enable-background="new    " points="
			284.7,633.2 169.1,566.8 168.8,433.4 284.1,366.5 399.8,433 400.1,566.4 		"/>
		
			<text transform="matrix(-0.4203 -0.9074 0.9074 -0.4203 260.9145 580.401)" fill="#FFFFFF" font-family="'Telegrafico'" font-size="33.5525">Bloque</text>
		
			<text transform="matrix(-0.4203 -0.9074 0.9074 -0.4203 303.6351 576.8371)" fill="#FFFFFF" font-family="'Telegrafico'" font-size="33.5525">Anahuac</text>
	</g>
	<g>
		
			<polygon opacity="0.46" fill="#FFFFFF" stroke="#00A99D" stroke-width="17" stroke-miterlimit="10" enable-background="new    " points="
			400.1,566.4 284.5,499.9 284.1,366.5 399.4,299.7 515,366.2 515.3,499.6 		"/>
	</g>
	
		<image overflow="visible" width="600" height="630" xlink:href="../../../Pictures/anahuaca.fw.png"  transform="matrix(0.1871 0 0 0.1871 343.9191 373.7564)">
	</image>
</g>
<g>
	<g>
		<g>
			<path fill="#1BB2A7" d="M764.3,411.6c4-3.8,8-7.6,11.9-11.6l-0.3,13.6c-0.9,27.1-4.8,54.1-11.5,80.4c-6.8,26.3-16.5,51.8-28.8,76
				c-12.3,24.2-27.2,47.1-44.3,68.1c-1,1.4-2.2,2.6-3.3,3.9l-3.3,3.8c-2.2,2.6-4.4,5.2-6.7,7.7l-7,7.4c-2.4,2.4-4.6,5-7.1,7.3
				l-7.4,7c-1.2,1.2-2.4,2.4-3.7,3.5l-3.8,3.3l-7.7,6.7l-1.9,1.7l-2,1.6l-4,3.1c-21.3,16.8-44.4,31.4-68.7,43.3
				c-1.5,0.8-3.1,1.5-4.6,2.2l-4.6,2.1c-3.1,1.4-6.2,2.8-9.3,4.2l-9.5,3.7l-4.7,1.9l-2.4,0.9l-2.4,0.8c-12.8,4.5-25.8,8.5-39,11.6
				c-52.8,12.6-108.2,13.7-161.5,3.2c-26.6-5.2-52.7-13.5-77.5-24.4c-24.8-10.9-48.5-24.5-70.4-40.5c-1.4-1-2.8-1.9-4.1-3l-4-3.1
				l-8-6.3c-0.7-0.5-1.3-1-2-1.6l-1.9-1.7l-3.8-3.3l-7.7-6.7l-7.4-7l-3.7-3.5l-1.8-1.8l-1.8-1.8l-7-7.4l-3.5-3.7
				c-1.1-1.3-2.2-2.6-3.3-3.8c-18-20.3-33.8-42.6-47-66.2c-0.8-1.5-1.7-2.9-2.5-4.4l-2.3-4.5l-4.6-9.1c-0.4-0.8-0.8-1.5-1.1-2.3
				l-1-2.3l-2.1-4.6l-4.2-9.3l-3.7-9.5l-1.9-4.7c-0.6-1.6-1.3-3.1-1.8-4.8l-3.3-9.6c-1.1-3.2-2.2-6.4-3.1-9.7
				c-7.8-26-12.7-52.8-14.7-79.9c-4-54.1,3.4-109.1,22.5-160c19.1-50.8,49.1-97.5,87.7-135.7c38.6-38.1,85.4-68,136.4-86.6
				c25.5-9.2,52.1-15.7,79-19.2c26.9-3.5,54.2-4.2,81.2-1.9c27,2.2,53.8,7.4,79.8,15.4c25.9,8.1,50.9,19,74.5,32.4
				c23.6,13.4,45.7,29.4,65.9,47.5c1.3,1.1,2.5,2.3,3.7,3.5l3.7,3.5c2.4,2.4,4.9,4.7,7.3,7.1l7,7.4c2.3,2.5,4.7,4.9,6.9,7.5l6.7,7.7
				c1.1,1.3,2.2,2.6,3.3,3.9l3.1,4l6.3,8l1.6,2l1.5,2.1l2.9,4.1c15.8,22.1,29.2,45.8,40,70.7c0.7,1.5,1.3,3.1,1.9,4.7l1.9,4.7
				l3.7,9.5l3.3,9.6l1.6,4.8c0.6,1.6,1.1,3.2,1.5,4.9l2.8,9.8l1.4,4.9c0.5,1.6,0.8,3.3,1.2,4.9l2.3,9.9c0.4,1.7,0.8,3.3,1.1,5l0.9,5
				c1.2,6.7,2.5,13.3,3.2,20.1l1.3,10.1c0.2,1.7,0.3,3.4,0.5,5.1l0.4,5.1l0.5,6.5l0.1,1.1l0.2,2.2l8-0.4c-6.3,7.2-12.7,14.1-19,20.6
				c-6.7-6.5-13.4-12.7-20.1-18.6l7.9-0.4l-0.2-2.1l-0.1-1l-0.5-6.1l-0.4-4.8c-0.1-1.6-0.2-3.2-0.4-4.8l-1.2-9.5
				c-0.7-6.3-1.9-12.6-3-18.8l-0.8-4.7c-0.3-1.6-0.7-3.1-1.1-4.7l-2.1-9.3c-0.4-1.5-0.7-3.1-1.1-4.6l-1.3-4.6l-2.6-9.2
				c-0.4-1.5-0.9-3-1.4-4.5l-1.5-4.5l-3.1-9l-3.5-8.9l-1.7-4.4c-0.6-1.5-1.1-3-1.8-4.4c-10.1-23.4-22.7-45.7-37.5-66.4l-2.8-3.9
				l-1.4-1.9l-1.5-1.9l-5.9-7.5l-2.9-3.8c-1-1.2-2.1-2.4-3.1-3.6l-6.3-7.2c-2-2.5-4.3-4.7-6.5-7l-6.6-6.9c-2.2-2.3-4.6-4.4-6.9-6.6
				l-3.5-3.3c-1.2-1.1-2.3-2.2-3.5-3.2c-18.9-17-39.7-32-61.8-44.6c-22.1-12.6-45.6-22.9-69.9-30.4c-24.3-7.5-49.5-12.3-74.8-14.4
				c-25.4-2.1-51-1.5-76.2,1.8c-25.2,3.3-50.1,9.3-74,18c-47.9,17.4-91.7,45.4-128,81.2c-36.2,35.9-64.4,79.6-82.3,127.3
				C51.4,324.4,44.4,376,48.2,426.8c1.9,25.4,6.5,50.6,13.8,74.9c0.8,3.1,1.9,6.1,2.9,9.1l3.1,9c0.5,1.5,1.1,3,1.7,4.5l1.8,4.4
				l3.5,8.9l3.9,8.7l2,4.3l1,2.2c0.3,0.7,0.7,1.4,1.1,2.1l4.4,8.5l2.2,4.2c0.7,1.4,1.6,2.8,2.4,4.2c12.4,22.2,27.3,43.1,44.1,62.1
				c1,1.2,2.1,2.4,3.1,3.6l3.3,3.5l6.6,6.9l1.7,1.7l1.7,1.6l3.5,3.3l6.9,6.6l7.2,6.3l3.6,3.1l1.8,1.6c0.6,0.5,1.2,1,1.9,1.5l7.5,5.9
				l3.8,3c1.3,1,2.6,1.9,3.9,2.8c20.6,15,42.8,27.7,66.1,38c23.3,10.2,47.7,18,72.7,22.9c49.9,9.8,102.1,8.8,151.5-3
				c12.4-2.9,24.6-6.7,36.6-10.9l2.3-0.8l2.2-0.9l4.4-1.8l8.9-3.5c2.9-1.3,5.8-2.6,8.7-3.9l4.3-2c1.4-0.7,2.9-1.3,4.3-2
				c22.9-11.2,44.5-24.9,64.5-40.6l3.8-2.9l1.9-1.5l1.8-1.6l7.2-6.3l3.6-3.1c1.2-1.1,2.3-2.2,3.5-3.3l6.9-6.6
				c2.4-2.1,4.5-4.5,6.7-6.8l6.6-6.9c2.1-2.4,4.2-4.8,6.3-7.2l3.1-3.6c1-1.2,2.1-2.4,3.1-3.7c16.1-19.7,30.1-41.2,41.6-63.9
				c11.5-22.7,20.6-46.6,27-71.3c6.3-24.7,9.9-50,10.8-75.5l0.3-12.8C756.7,403.8,760.5,407.6,764.3,411.6z"/>
		</g>
	</g>
</g>
<text transform="matrix(1 0 0 1 290.9235 104.9803)" fill="#F0EFEC" font-family="'Quicksand-Regular'" font-size="46.8859">Espiritual</text>
<text transform="matrix(0.2971 0.9549 -0.9549 0.2971 669.7508 247.4569)" fill="#F0EFEC" font-family="'Quicksand-Regular'" font-size="46.8859">Social</text>
<text transform="matrix(0.3057 -0.9521 0.9521 0.3057 80.3176 417.4298)" fill="#F0EFEC" font-family="'Quicksand-Regular'" font-size="46.8859">Humana</text>
<text transform="matrix(-0.7849 -0.6196 0.6196 -0.7849 314.2458 716.0215)" fill="#F0EFEC" font-family="'Quicksand-Regular'" font-size="46.8859">Intelectual</text>
<text transform="matrix(-0.7644 0.6448 -0.6448 -0.7644 690.814 550.1617)" fill="#F0EFEC" font-family="'Quicksand-Regular'" font-size="46.8859">Profesional</text>
</svg>
