<?xml version="1.0" encoding="utf-8"?>
<!-- Generator: Adobe Illustrator 17.0.0, SVG Export Plug-In . SVG Version: 6.00 Build 0)  -->
<!DOCTYPE svg PUBLIC "-//W3C//DTD SVG 1.1//EN" "http://www.w3.org/Graphics/SVG/1.1/DTD/svg11.dtd">
<svg version="1.1" id="Layer_1" xmlns="http://www.w3.org/2000/svg" xmlns:xlink="http://www.w3.org/1999/xlink" x="0px" y="0px"
	 width="400px" height="400px" viewBox="0 0 400 400" enable-background="new 0 0 400 400" xml:space="preserve">
<g>
	<path fill="none" d="M200.002,60.806c-33.582,0-60.831,22.335-61.438,50.051h122.871C260.834,83.14,233.585,60.806,200.002,60.806z
		"/>
	<path fill="#FFFFFF" d="M321.504,236.278h-23.516v-21.55H98.091v21.55H74.575v-21.55H15.78v99.945
		c0,25.981,21.056,47.037,47.037,47.037h274.37c25.976,0,47.032-21.056,47.032-47.037v-99.945h-62.716V236.278z"/>
	<path fill="#FFFFFF" d="M337.188,110.856h-63.936c-0.07,0.301-0.091,0.613-0.167,0.924h-11.591c0-0.311-0.053-0.612-0.059-0.924
		H138.565c-0.006,0.312-0.054,0.613-0.054,0.924h-11.596c-0.07-0.311-0.092-0.623-0.161-0.924H62.817
		c-25.981,0-47.037,21.051-47.037,47.043v35.268h58.795h23.516h199.896h23.516h62.716v-35.268
		C384.22,131.907,363.164,110.856,337.188,110.856z"/>
	<path fill="#FFFFFF" d="M200.002,60.806c33.582,0,60.831,22.335,61.433,50.051h11.817c0.752-3.512,1.219-7.122,1.219-10.828
		c0-34.097-33.34-61.739-74.469-61.739c-41.134,0-74.474,27.641-74.474,61.739c0,3.706,0.462,7.316,1.225,10.828h11.811
		C139.172,83.14,166.421,60.806,200.002,60.806z"/>
	<path fill="#FFFFFF" d="M261.494,111.78h11.591c0.075-0.311,0.097-0.623,0.167-0.924h-11.817
		C261.441,111.168,261.494,111.469,261.494,111.78z"/>
	<path fill="#FFFFFF" d="M138.511,111.78c0-0.311,0.048-0.612,0.054-0.924h-11.811c0.069,0.301,0.091,0.613,0.161,0.924H138.511z"/>
</g>
</svg>
