<?xml version="1.0" encoding="utf-8"?>
<!-- Generator: Adobe Illustrator 16.0.0, SVG Export Plug-In . SVG Version: 6.00 Build 0)  -->
<!DOCTYPE svg PUBLIC "-//W3C//DTD SVG 1.1//EN" "http://www.w3.org/Graphics/SVG/1.1/DTD/svg11.dtd">
<svg version="1.1" id="Capa_1" xmlns="http://www.w3.org/2000/svg" xmlns:xlink="http://www.w3.org/1999/xlink" x="0px" y="0px"
	 width="1744.21px" height="131.865px" viewBox="0 0 1744.21 131.865" enable-background="new 0 0 1744.21 131.865"
	 xml:space="preserve">
<g>
	<line fill="#FFFFFF" x1="0" y1="65.933" x2="1744" y2="65.933"/>
	<g>
		<g>
			<polygon fill="#F26B3B" points="23.291,65.936 0,42.933 26.476,42.933 1705,42.933 1705,26.721 1744.21,65.939 1705,105.144 
				1705,88.933 26.476,88.933 0,88.933 			"/>
		</g>
	</g>
</g>
<g>
	<circle fill="#FFFFFF" stroke="#ED1C24" stroke-width="20" stroke-miterlimit="10" cx="149.607" cy="65.933" r="49.513"/>
	<text transform="matrix(1 0 0 1 134.2827 83.2666)" font-family="'MyriadPro-Regular'" font-size="53.3875">1</text>
</g>
<g>
	<circle fill="#FFFFFF" stroke="#ED1C24" stroke-width="20" stroke-miterlimit="10" cx="975.319" cy="65.933" r="49.513"/>
	<text transform="matrix(1 0 0 1 959.9941 83.2666)" font-family="'MyriadPro-Regular'" font-size="53.3875">5</text>
</g>
<g>
	<circle fill="#FFFFFF" stroke="#ED1C24" stroke-width="20" stroke-miterlimit="10" cx="768.891" cy="65.933" r="49.513"/>
	<text transform="matrix(1 0 0 1 753.5664 83.2666)" font-family="'MyriadPro-Regular'" font-size="53.3875">4</text>
</g>
<g>
	<circle fill="#FFFFFF" stroke="#ED1C24" stroke-width="20" stroke-miterlimit="10" cx="562.462" cy="65.933" r="49.513"/>
	<text transform="matrix(1 0 0 1 547.1387 83.2666)" font-family="'MyriadPro-Regular'" font-size="53.3875">3</text>
</g>
<g>
	<circle fill="#FFFFFF" stroke="#ED1C24" stroke-width="20" stroke-miterlimit="10" cx="356.035" cy="65.933" r="49.513"/>
	<text transform="matrix(1 0 0 1 340.71 83.2666)" font-family="'MyriadPro-Regular'" font-size="53.3875">2</text>
</g>
<g>
	<circle fill="#FFFFFF" stroke="#ED1C24" stroke-width="20" stroke-miterlimit="10" cx="1181.748" cy="65.933" r="49.513"/>
	<text transform="matrix(1 0 0 1 1166.4219 83.2666)" font-family="'MyriadPro-Regular'" font-size="53.3875">6</text>
</g>
<g>
	<circle fill="#FFFFFF" stroke="#ED1C24" stroke-width="20" stroke-miterlimit="10" cx="1388.175" cy="65.933" r="49.513"/>
	<text transform="matrix(1 0 0 1 1372.8506 83.2666)" font-family="'MyriadPro-Regular'" font-size="53.3875">7</text>
</g>
<g>
	<circle fill="#FFFFFF" stroke="#ED1C24" stroke-width="20" stroke-miterlimit="10" cx="1594.603" cy="65.933" r="49.513"/>
	<text transform="matrix(1 0 0 1 1579.2783 83.2666)" font-family="'MyriadPro-Regular'" font-size="53.3875">8</text>
</g>
</svg>
