<?xml version="1.0" encoding="utf-8"?>
<!-- Generator: Adobe Illustrator 16.0.0, SVG Export Plug-In . SVG Version: 6.00 Build 0)  -->
<!DOCTYPE svg PUBLIC "-//W3C//DTD SVG 1.1//EN" "http://www.w3.org/Graphics/SVG/1.1/DTD/svg11.dtd">
<svg version="1.1" id="Capa_1" xmlns="http://www.w3.org/2000/svg" xmlns:xlink="http://www.w3.org/1999/xlink" x="0px" y="0px"
	 width="612.703px" height="84.149px" viewBox="58.7 1031.197 612.703 84.149"
	 enable-background="new 58.7 1031.197 612.703 84.149" xml:space="preserve">
<g>
	<g>
		<polygon fill="#FF6C1B" points="653.857,1115.347 663.733,1098.734 653.857,1082.045 653.857,1088.858 58.7,1088.858 
			58.7,1108.61 653.857,1108.61 		"/>
	</g>
</g>
<path fill="#ED1C24" stroke="#F2F2F2" stroke-width="6" stroke-miterlimit="10" d="M105.323,1051.422c0,9.493,0,9.493-17.225,36.901
	c-17.225-27.408-17.225-27.408-17.225-36.901s7.732-17.225,17.225-17.225C97.591,1034.197,105.323,1041.852,105.323,1051.422z"/>
<text transform="matrix(1 0 0 1 75.2041 1056.1064)" fill="#FFFFFF" font-family="'MyriadPro-Regular'" font-size="12.5504">1964</text>
<path fill="#ED1C24" stroke="#F2F2F2" stroke-width="6" stroke-miterlimit="10" d="M182.493,1051.422c0,9.493,0,9.493-17.225,36.901
	c-17.225-27.408-17.225-27.408-17.225-36.901s7.732-17.225,17.225-17.225C174.914,1034.273,182.493,1041.852,182.493,1051.422z"/>
<text transform="matrix(1 0 0 1 152.4268 1056.1064)" fill="#FFFFFF" font-family="'MyriadPro-Regular'" font-size="12.5504">1999</text>
<path fill="#ED1C24" stroke="#F2F2F2" stroke-width="6" stroke-miterlimit="10" d="M267.396,1051.422c0,9.493,0,9.493-17.225,36.901
	c-17.225-27.408-17.225-27.408-17.225-36.901s7.732-17.225,17.225-17.225C259.74,1034.273,267.396,1041.852,267.396,1051.422z"/>
<text transform="matrix(1 0 0 1 237.2832 1056.1064)" fill="#FFFFFF" font-family="'MyriadPro-Regular'" font-size="12.5504">2000</text>
<path fill="#ED1C24" stroke="#F2F2F2" stroke-width="6" stroke-miterlimit="10" d="M365.925,1051.422c0,9.493,0,9.493-17.225,36.901
	c-17.226-27.331-17.226-27.331-17.226-36.901s7.732-17.225,17.226-17.225C358.193,1034.273,365.925,1041.852,365.925,1051.422z"/>
<path fill="#ED1C24" stroke="#F2F2F2" stroke-width="6" stroke-miterlimit="10" d="M444.952,1052.422c0,9.493,0,9.493-17.225,36.901
	c-17.226-27.408-17.226-27.408-17.226-36.901s7.732-17.225,17.226-17.225C437.296,1035.273,444.952,1042.852,444.952,1052.422z"/>
<path fill="#ED1C24" stroke="#F2F2F2" stroke-width="6" stroke-miterlimit="10" d="M668.403,1051.422c0,9.493,0,9.493-17.226,36.901
	c-17.225-27.408-17.225-27.408-17.225-36.901s7.732-17.225,17.225-17.225C660.671,1034.196,668.403,1041.852,668.403,1051.422z"/>
<text transform="matrix(1 0 0 1 416.2363 1057.1064)" fill="#FFFFFF" font-family="'MyriadPro-Regular'" font-size="12.5504">2000</text>
<text transform="matrix(1 0 0 1 335.7832 1056.1064)" fill="#FFFFFF" font-family="'MyriadPro-Regular'" font-size="12.5504">2000</text>
<text transform="matrix(1 0 0 1 641.7832 1056.1064)" fill="#FFFFFF" font-family="'MyriadPro-Regular'" font-size="12.5504">2000</text>
</svg>
