<?xml version="1.0" encoding="utf-8"?>
<!-- Generator: Adobe Illustrator 17.0.0, SVG Export Plug-In . SVG Version: 6.00 Build 0)  -->
<!DOCTYPE svg PUBLIC "-//W3C//DTD SVG 1.1//EN" "http://www.w3.org/Graphics/SVG/1.1/DTD/svg11.dtd">
<svg version="1.1" id="Capa_1" xmlns="http://www.w3.org/2000/svg" xmlns:xlink="http://www.w3.org/1999/xlink" x="0px" y="0px"
	 width="612px" height="792px" viewBox="0 0 612 792" enable-background="new 0 0 612 792" xml:space="preserve">
<g>
	<g>
		<polygon fill="#FF6C1B" points="653.857,1115.347 663.733,1098.734 653.857,1082.045 653.857,1088.858 58.7,1088.858 
			58.7,1108.61 653.857,1108.61 		"/>
	</g>
</g>
<path fill="#ED1C24" stroke="#F2F2F2" stroke-width="6" stroke-miterlimit="10" d="M105.323,1051.422c0,9.493,0,9.493-17.225,36.901
	c-17.225-27.408-17.225-27.408-17.225-36.901c0-9.493,7.732-17.225,17.225-17.225S105.323,1041.852,105.323,1051.422z"/>
<text transform="matrix(1 0 0 1 75.2041 1056.1064)" fill="#FFFFFF" font-family="'MyriadPro-Regular'" font-size="12.5504">1964</text>
<path fill="#ED1C24" stroke="#F2F2F2" stroke-width="6" stroke-miterlimit="10" d="M182.493,1051.422c0,9.493,0,9.493-17.225,36.901
	c-17.225-27.408-17.225-27.408-17.225-36.901c0-9.493,7.732-17.225,17.225-17.225
	C174.914,1034.273,182.493,1041.852,182.493,1051.422z"/>
<text transform="matrix(1 0 0 1 152.4268 1056.1064)" fill="#FFFFFF" font-family="'MyriadPro-Regular'" font-size="12.5504">1999</text>
<path fill="#ED1C24" stroke="#F2F2F2" stroke-width="6" stroke-miterlimit="10" d="M267.396,1051.422c0,9.493,0,9.493-17.225,36.901
	c-17.225-27.408-17.225-27.408-17.225-36.901c0-9.493,7.732-17.225,17.225-17.225
	C259.74,1034.273,267.396,1041.852,267.396,1051.422z"/>
<text transform="matrix(1 0 0 1 237.2833 1056.1064)" fill="#FFFFFF" font-family="'MyriadPro-Regular'" font-size="12.5504">2000</text>
<path fill="#ED1C24" stroke="#F2F2F2" stroke-width="6" stroke-miterlimit="10" d="M365.925,1051.422c0,9.493,0,9.493-17.225,36.901
	c-17.225-27.331-17.225-27.331-17.225-36.901c0-9.57,7.732-17.225,17.225-17.225
	C358.193,1034.273,365.925,1041.852,365.925,1051.422z"/>
<path fill="#ED1C24" stroke="#F2F2F2" stroke-width="6" stroke-miterlimit="10" d="M503.499,1051.422c0,9.493,0,9.493-17.225,36.901
	c-17.225-27.408-17.225-27.408-17.225-36.901c0-9.493,7.732-17.225,17.225-17.225
	C495.843,1034.273,503.499,1041.852,503.499,1051.422z"/>
<path fill="#ED1C24" stroke="#F2F2F2" stroke-width="6" stroke-miterlimit="10" d="M668.403,1051.422c0,9.493,0,9.493-17.225,36.901
	c-17.225-27.408-17.225-27.408-17.225-36.901c0-9.493,7.732-17.225,17.225-17.225
	C660.671,1034.196,668.403,1041.852,668.403,1051.422z"/>
</svg>
